<svg width="64" height="64" viewBox="0 0 64 64" fill="none" xmlns="http://www.w3.org/2000/svg">
<g clip-path="url(#clip0_33_8653)">
<rect width="64" height="64" rx="32" fill="#F56861"/>
<path d="M58.6294 69.779C58.5553 65.917 57.5916 61.1137 57.5916 61.1137C57.5916 61.1137 55.1158 51.9295 53.7297 47.9192C52.3435 43.909 47.6513 39.3577 47.6513 39.3577L48.6224 38.1643L49.1042 39.5208L49.6527 38.0086C50.2013 36.4964 50.2161 34.621 50.2161 34.621L51.4169 35.7403C51.4169 35.7403 51.6245 34.1911 51.4169 31.7375C51.2094 29.284 50.3643 28.4686 50.3643 28.4686L51.239 28.7577L50.9796 27.4975L49.9344 25.0588L50.9499 25.17L50.4162 24.2805L52.0618 23.7616C52.0618 23.7616 53.3739 22.9388 54.7897 21.7083C56.2055 20.4778 56.9764 17.2014 56.9764 17.2014C56.9764 17.2014 52.2175 16.7344 49.1116 16.1488C46.0132 15.5632 42.8999 16.9494 42.8999 16.9494L40.5797 16.0228C40.5797 16.0228 36.7029 14.9925 32.159 14.696C27.6151 14.4069 24.7687 15.9265 24.7687 15.9265L21.5812 16.9049C21.5812 16.9049 19.6391 15.9561 17.8008 16.1488C15.9625 16.3416 11.7077 16.69 11.7077 16.69L7.33423 17.2014C7.33423 17.2014 8.11255 20.1294 9.97311 22.0122C11.8337 23.9024 13.924 24.488 13.924 24.488L13.4051 25.548C12.8863 26.608 12.8047 28.7873 12.8047 28.7873L13.7609 28.602C13.0197 30.3884 13.1457 33.5017 13.1457 33.5017L13.9092 32.7234C13.8054 35.4364 14.4058 38.3496 14.4058 38.3496L15.2879 37.1561L17.2449 39.7357L20.5583 42.0485C20.5583 42.0485 19.5502 45.1395 19.35 47.9118C19.1499 50.6841 19.6688 60.3353 19.6688 60.3353C19.6688 60.3353 20.032 71.217 19.9282 74.9826C19.8245 78.7482 16.9632 79.8379 16.9632 79.8379L58.4293 79.8601C58.4293 79.8601 58.7109 73.6335 58.6368 69.7716L58.6294 69.779ZM27.0591 76.5689L26.733 73.8707L28.7937 76.0945L27.0517 76.5689H27.0591Z" fill="#FFFDE6"/>
<path d="M18.6976 18.8248L17.3189 20.2332L14.6726 20.804L15.9921 21.3525L14.9024 21.7898L15.5992 22.1382C15.5992 22.1382 14.1686 23.4428 14.0722 24.2953C13.9758 25.1477 10.4993 22.6719 10.4993 22.6719L8.2533 19.1287L7.34155 17.2163L13.4644 17.7129L17.1039 18.0242L18.7125 18.8322L18.6976 18.8248Z" fill="#FFDCA8"/>
<path d="M26.0583 15.6226C26.1028 15.7856 26.9849 18.6543 27.0072 18.5876C27.0294 18.5209 29.8536 14.8665 29.8536 14.8665L26.0583 15.6226Z" fill="#DFBF9B"/>
<path d="M30.6765 15.0518C30.6913 15.0963 32.033 18.4468 32.033 18.4468L33.7972 14.8665L30.6765 15.0518Z" fill="#DFBF9B"/>
<path d="M35.1167 14.9851C35.1834 15.0888 37.4961 18.4468 37.4961 18.4468L38.1781 15.504L35.1167 14.9925V14.9851Z" fill="#DFBF9B"/>
<path d="M45.8277 18.7136C45.8277 18.7136 47.9477 17.913 50.4013 17.7796C52.8549 17.6462 56.9689 17.2163 56.9689 17.2163C56.9689 17.2163 56.6353 19.277 55.4493 20.841C54.2633 22.4051 52.5287 23.5689 52.5287 23.5689L50.4161 24.2879C50.4161 24.2879 49.03 22.368 48.0144 21.3451L48.7557 20.6483L47.4288 20.2258C47.4288 20.2258 48.8224 19.4178 49.2153 19.3956C49.6082 19.3733 46.317 19.4178 46.317 19.4178L45.8203 18.7062L45.8277 18.7136Z" fill="#FFDCA8"/>
<path d="M17.319 22.7609C17.319 22.7609 14.8136 23.2205 13.8425 24.9402C12.8715 26.6599 12.7974 28.8021 12.7974 28.8021L13.8425 27.9645C13.8425 27.9645 13.2569 29.6398 13.1976 31.1223C13.1383 32.6048 13.1458 33.5166 13.1458 33.5166L13.9093 32.7382C13.9093 32.7382 13.7981 35.2659 13.8425 36.4519C13.887 37.638 14.3985 38.3644 14.3985 38.3644L15.2806 37.171C15.2806 37.171 16.7779 39.632 18.8905 40.9736C21.0031 42.3153 24.109 44.2574 30.3578 44.628C36.614 44.9987 43.2409 42.6341 43.2409 42.6341L47.6514 39.3577L48.6224 38.1643L48.8448 39.5727C48.8448 39.5727 49.4601 38.7647 49.7492 37.6305C50.0382 36.4964 50.2161 34.6284 50.2161 34.6284L51.417 35.7478C51.417 35.7478 51.6097 34.2133 51.5801 33.1311C51.5504 32.0489 50.357 28.476 50.357 28.476L51.2317 28.7651L49.9271 25.0662L50.9426 25.1774C50.9426 25.1774 50.4385 23.7542 48.8893 23.3391C47.3401 22.924 47.1547 22.8054 47.1547 22.8054L47.7552 22.153L45.4647 22.0641L43.567 22.2939L44.0563 20.7521C44.0563 20.7521 42.4552 20.7002 41.0171 21.3451C39.5791 21.99 38.8897 22.153 38.8897 22.153L38.7044 21.2487L35.2501 23.3984L33.6416 22.0196L31.0249 23.1019L30.7803 22.1308L29.1273 23.5318L25.6879 21.0634L25.4951 22.1308L22.4337 21.0708L20.21 20.7447L20.7659 22.2865L18.6904 22.0493L16.8521 22.242L17.3116 22.7535L17.319 22.7609Z" fill="#DFBF9B"/>
<path d="M29.6313 33.5314C29.6313 33.5314 30.5283 35.1029 32.1739 35.2215C33.8195 35.3401 34.7164 33.5314 34.7164 33.5314H29.6388H29.6313Z" fill="#2F3152"/>
<path d="M21.1216 25.5554C21.1216 25.5554 20.1283 26.7414 19.6835 28.9133C19.2462 31.0926 20.6027 32.3973 20.6027 32.3973C20.6027 32.3973 22.1371 33.3831 24.4572 33.6129C26.7774 33.8427 28.4675 33.1163 28.4675 33.1163C28.4675 33.1163 29.3347 32.1897 29.7276 30.7591C30.1205 29.3284 29.6387 27.9571 29.6387 27.9571C29.6387 27.9571 27.5483 26.1781 25.6952 25.8075C23.8346 25.4368 21.129 25.5554 21.129 25.5554H21.1216Z" fill="#FDF9A6"/>
<path d="M39.4603 34.6284C42.281 34.6284 44.5676 32.3418 44.5676 29.5212C44.5676 26.7005 42.281 24.4139 39.4603 24.4139C36.6396 24.4139 34.353 26.7005 34.353 29.5212C34.353 32.3418 36.6396 34.6284 39.4603 34.6284Z" fill="#FDF9A6"/>
<path d="M21.1956 42.4636C21.1956 42.4636 24.8575 45.651 31.4917 46.1328C38.126 46.6146 43.2407 42.6341 43.2407 42.6341C43.2407 42.6341 37.0215 45.2136 30.3576 44.628C23.6937 44.0424 21.1882 42.4636 21.1882 42.4636H21.1956Z" fill="#E93323"/>
<path d="M18.6977 18.8248C18.6977 18.8248 17.3115 17.8612 13.8721 17.7648C10.4326 17.6684 8.71289 17.2163 8.71289 17.2163C8.71289 17.2163 15.1396 16.3342 17.8007 16.1637C20.4619 15.9932 21.5812 16.9198 21.5812 16.9198L18.6977 18.8322V18.8248Z" fill="#DFBF9B"/>
<path d="M45.8279 18.7136C45.8279 18.7136 47.0806 17.8389 50.4014 17.7796C53.7223 17.7203 56.3538 17.1644 56.3538 17.1644C56.3538 17.1644 49.4304 16.0525 46.6136 16.1711C43.7968 16.2897 42.8999 16.9642 42.8999 16.9642L45.8279 18.7136Z" fill="#DFBF9B"/>
<path d="M19.3425 51.6478L21.6775 52.9895L24.0125 54.4571L24.5832 55.8952C24.5832 55.8952 23.0414 55.8878 21.4403 55.4356C19.8392 54.9834 19.3425 54.5757 19.3425 54.5757V51.6478Z" fill="#DFBF9B"/>
<path d="M19.5354 57.6742L21.3737 58.5118L23.5308 59.9944L21.6776 60.0537L19.5651 59.7201L19.5354 57.6742Z" fill="#DFBF9B"/>
<path d="M19.7652 62.3516L22.7969 63.3671L21.3737 64.0935L19.6614 64.2566L19.7652 62.3516Z" fill="#DFBF9B"/>
<path d="M39.4604 55.6802C39.4604 55.6802 41.0171 53.5973 43.656 52.5373C46.2949 51.4773 48.4742 51.2475 48.4742 51.2475C48.4742 51.2475 47.2882 53.6936 44.7827 54.8648C42.2772 56.036 39.4679 55.6802 39.4679 55.6802H39.4604Z" fill="#DFBF9B"/>
<path d="M41.3357 59.8683C41.3357 59.8683 42.7811 58.4599 45.8203 57.4444C48.8595 56.4289 49.8305 56.592 49.8305 56.592C49.8305 56.592 48.7631 58.7342 46.013 59.4606C43.263 60.1871 41.3357 59.8609 41.3357 59.8609V59.8683Z" fill="#DFBF9B"/>
<path d="M42.0325 63.33C42.0325 63.33 43.1666 62.4109 45.5905 62.359C48.0144 62.3071 48.5704 62.989 48.5704 62.989C48.5704 62.989 47.0286 64.353 44.7825 64.2492C42.5365 64.1454 42.0399 63.33 42.0399 63.33H42.0325Z" fill="#DFBF9B"/>
<path opacity="0.2" d="M31.4919 46.1254C31.4919 46.1254 35.6875 46.5034 39.0824 46.3181C42.4774 46.1328 44.9384 49.0163 46.5543 51.5218C48.1703 54.0272 46.9843 62.7592 46.0132 65.0349C45.0422 67.3106 43.4633 75.4719 43.9229 79.9861L58.4219 79.8601C58.4219 79.8601 59.2521 69.6974 58.0587 63.797C56.8653 57.8966 54.4265 49.7872 54.4265 49.7872C54.4265 49.7872 52.3658 44.4575 50.446 42.4487C48.5261 40.4399 47.6662 39.3429 47.6662 39.3429C47.6662 39.3429 43.619 42.6044 40.0164 44.4798C36.4139 46.3552 31.5068 46.118 31.5068 46.118L31.4919 46.1254Z" fill="#2F3152"/>
<path opacity="0.2" d="M27.7486 60.8839C27.7486 60.8839 31.2844 65.0423 33.3674 66.3766C35.4503 67.7109 38.4821 68.9414 39.5791 66.3766L39.4605 72.1658L38.6822 76.5689L37.2516 79.445L36.2064 79.9639L26.696 80.001L26.9184 76.4429L28.7938 76.1019L26.7331 73.8781C26.7331 73.8781 27.2891 72.3141 27.9488 70.0755C28.6085 67.8369 28.7938 66.5471 28.7938 66.5471L27.2668 62.5739L27.7486 60.8913V60.8839Z" fill="#2F3152"/>
<path opacity="0.2" d="M24.7317 56.592C24.7317 56.592 24.665 63.1447 24.8799 65.2351C25.0949 67.3254 24.7169 71.9805 24.2425 74.5379C23.7681 77.0952 23.5234 80.0009 23.5234 80.0009H26.696L26.9184 76.4355C26.9184 76.4355 27.1037 73.5965 27.9488 70.0681C28.7938 66.5397 28.2601 65.3981 27.7634 63.9823C27.2668 62.5665 27.7486 60.8839 27.7486 60.8839L24.7317 56.592Z" fill="#2F3152"/>
<path opacity="0.2" d="M35.1167 46.1699L34.3606 44.4575C34.3606 44.4575 39.6606 43.7385 42.4033 42.9454C45.1459 42.1522 35.1241 46.1624 35.1241 46.1624L35.1167 46.1699Z" fill="#2F3152"/>
<path opacity="0.2" d="M46.0132 18.8396C46.0132 18.8396 46.71 19.0027 47.9627 19.2028L49.2154 19.403L47.429 20.2332L48.7558 20.6557L48.0146 21.3525L49.9863 23.7171L50.5423 24.4732C50.5423 24.4732 53.4999 23.6652 54.7823 21.7231C56.0647 19.781 56.969 17.2163 56.969 17.2163C56.969 17.2163 54.4413 17.6017 52.7512 17.6684C51.0612 17.7351 49.0227 17.8612 49.0227 17.8612C49.0227 17.8612 47.0806 18.2985 46.0132 18.847V18.8396Z" fill="#2F3152"/>
<path opacity="0.2" d="M35.1168 14.9851C35.1168 14.9851 40.9282 19.4549 42.8703 25.7259C42.8703 25.7259 44.5234 27.6903 44.5456 29.9659C44.5678 32.2416 42.4182 33.6796 42.4182 33.6796C42.4182 33.6796 41.8326 43.6273 34.3533 44.465C34.3533 44.465 40.5206 43.8571 43.4708 42.471C46.421 41.0848 48.4669 38.3644 48.4669 38.3644L48.5632 40.3065C48.5632 40.3065 49.6306 38.8685 49.9271 37.0375C50.2236 35.2066 50.2162 34.6284 50.2162 34.6284L51.4171 35.7477C51.4171 35.7477 51.721 33.4795 51.4171 31.7449C51.1132 30.0104 50.3645 28.476 50.3645 28.476L51.2392 28.7651L49.9345 25.0662L50.8834 25.296L50.5424 24.4658L48.0147 21.3451L48.7559 20.6483L47.4291 20.2258L49.2155 19.3956L46.0133 18.8396L43.241 16.9123C43.241 16.9123 38.5117 15.2816 35.1094 14.9851H35.1168Z" fill="#2F3152"/>
<path d="M31.0024 33.3016C31.0024 33.3016 29.6311 33.2126 29.6311 33.7093C29.6311 34.2059 31.6103 35.3252 32.1959 35.3252C32.7815 35.3252 34.7161 34.1985 34.7161 33.7538C34.7161 33.309 32.9594 33.2571 31.0024 33.3016Z" stroke="#2F3152" stroke-linecap="round" stroke-linejoin="round"/>
<path d="M44.7752 41.5592C45.6647 40.8698 46.7989 40.2843 47.7032 39.3132L48.6743 38.2532L48.5927 39.9507C50.5867 37.0672 50.2012 34.4431 50.2012 34.4431C51.0908 35.3771 51.4762 35.9256 51.4762 35.9256C52.0247 30.8851 50.3347 28.5056 50.3347 28.5056L51.2761 28.7947C50.8239 26.2003 49.8084 25.0291 49.8084 25.0291L50.8758 25.2886C50.4829 23.1019 46.9694 22.7683 46.9694 22.7683L47.8218 22.2272C45.8501 21.7305 43.5077 22.3606 43.5077 22.3606C43.693 21.6861 44.2638 20.7891 44.2638 20.7891C41.4766 20.7891 38.8229 22.2272 38.8229 22.2272V21.2413C37.2959 22.0048 35.3612 23.5763 35.3612 23.5763C34.9091 22.7683 33.56 22.0493 33.56 22.0493C32.6112 22.6793 31.01 23.0351 31.01 23.0351C30.7728 22.7461 30.8766 22.0493 30.8766 22.0493C30.8766 22.0493 29.5275 22.7683 29.0753 23.5763C29.0753 23.5763 27.1407 22.0048 25.6137 21.2413V22.2272C25.6137 22.2272 22.9674 20.7891 20.1728 20.7891C20.1728 20.7891 20.751 21.6861 20.9289 22.3606C20.9289 22.3606 18.5865 21.7305 16.6148 22.2272L17.4672 22.7683C17.4672 22.7683 12.4192 23.0351 12.8047 29.1357C12.8047 29.1357 13.4348 28.2907 13.9907 27.9497C13.9907 27.9497 12.7157 30.8777 13.1827 33.5462C13.1827 33.5462 13.8647 32.6567 14.2427 32.4417C14.2427 32.4417 13.3532 35.4512 14.2872 38.609C14.2872 38.609 14.7097 37.6973 15.2657 37.1487C15.2657 37.1487 15.9699 38.5645 16.7408 39.3058C17.4672 40.01 18.3048 40.5215 19.0313 41.07C25.4209 45.9178 39.4456 45.6658 44.7604 41.5518L44.7752 41.5592Z" stroke="#2F3152" stroke-linecap="round" stroke-linejoin="round"/>
<path d="M39.4603 34.6284C42.281 34.6284 44.5676 32.3418 44.5676 29.5212C44.5676 26.7005 42.281 24.4139 39.4603 24.4139C36.6396 24.4139 34.353 26.7005 34.353 29.5212C34.353 32.3418 36.6396 34.6284 39.4603 34.6284Z" stroke="#2F3152" stroke-linecap="round" stroke-linejoin="round"/>
<path d="M29.6311 27.9645C29.7868 28.4538 29.8758 28.98 29.8758 29.5212C29.8758 30.9296 29.305 32.2045 28.3784 33.1311" stroke="#2F3152" stroke-linecap="round" stroke-linejoin="round"/>
<path d="M20.588 32.4491C20.0024 31.6189 19.6614 30.6034 19.6614 29.5138C19.6614 27.9645 20.3507 26.5784 21.4404 25.6444" stroke="#2F3152" stroke-linecap="round" stroke-linejoin="round"/>
<path d="M48.0886 21.3451C48.1702 20.9226 49.0226 20.7965 49.0226 20.7965C48.3851 20.4185 47.2881 20.4111 47.2881 20.4111C47.6661 19.7365 49.4896 19.4771 49.4896 19.4771C48.1331 18.8396 46.102 19.4771 46.102 19.4771C46.1613 19.3511 46.6135 19.0991 46.6135 19.0991C46.6135 19.0991 46.1836 18.7433 45.5906 18.8174" stroke="#2F3152" stroke-linecap="round" stroke-linejoin="round"/>
<path d="M21.8257 17.0309C21.8257 17.0309 19.6834 15.8153 15.3693 16.2749C11.0552 16.7344 8.78693 17.1495 7.51196 17.2163C7.51196 17.2163 8.52749 23.176 14.0647 24.2953" stroke="#2F3152" stroke-linecap="round" stroke-linejoin="round"/>
<path d="M18.8904 18.8248C18.1269 18.4542 16.4516 17.8093 13.9017 17.75C9.22436 17.6388 7.50464 17.2163 7.50464 17.2163" stroke="#2F3152" stroke-linecap="round" stroke-linejoin="round"/>
<path d="M29.8535 39.7431C29.8535 39.7431 31.5955 38.8536 32.1959 37.423V35.3178" stroke="#2F3152" stroke-linecap="round" stroke-linejoin="round"/>
<path d="M34.5457 39.7431C34.5457 39.7431 32.8038 38.8536 32.2034 37.423V35.3178" stroke="#2F3152" stroke-linecap="round" stroke-linejoin="round"/>
<path d="M42.8997 16.9123C42.8997 16.9123 44.8047 15.8153 49.1188 16.2674C53.433 16.7196 55.7012 17.1421 56.9762 17.2088C56.9762 17.2088 55.9607 23.1686 50.4234 24.2879" stroke="#2F3152" stroke-linecap="round" stroke-linejoin="round"/>
<path d="M15.6214 22.027L14.9839 21.8565C15.4509 21.56 16.0884 21.4785 16.0884 21.4785C15.5325 20.715 14.6726 20.967 14.6726 20.967C16.1774 20.3295 17.3634 20.2035 17.3634 20.2035C17.3634 20.2035 22.0704 14.8665 32.1663 14.8665C42.2623 14.8665 45.5905 18.8248 45.5905 18.8248C46.354 18.4542 48.0293 17.8093 50.5792 17.75C55.2566 17.6388 56.9763 17.2163 56.9763 17.2163" stroke="#2F3152" stroke-linecap="round" stroke-linejoin="round"/>
<path d="M24.7686 32.7382C25.8576 32.7382 26.7404 31.8554 26.7404 30.7665C26.7404 29.6775 25.8576 28.7947 24.7686 28.7947C23.6797 28.7947 22.7969 29.6775 22.7969 30.7665C22.7969 31.8554 23.6797 32.7382 24.7686 32.7382Z" fill="#2F3152"/>
<path d="M39.4603 32.7382C40.5492 32.7382 41.432 31.8554 41.432 30.7665C41.432 29.6775 40.5492 28.7947 39.4603 28.7947C38.3713 28.7947 37.4885 29.6775 37.4885 30.7665C37.4885 31.8554 38.3713 32.7382 39.4603 32.7382Z" fill="#2F3152"/>
<path d="M33.6416 15.0073L32.1739 18.8248L30.6765 14.8961" stroke="#2F3152" stroke-linecap="round" stroke-linejoin="round"/>
<path d="M38.1927 15.5781L37.4885 18.343L35.3981 15.6226C35.2647 15.4446 35.1683 15.2519 35.1165 15.0518" stroke="#2F3152" stroke-linecap="round" stroke-linejoin="round"/>
<path d="M29.4163 15.1185C29.3866 15.4372 29.268 15.7412 29.0753 15.9932L26.985 18.7136L26.1992 15.63" stroke="#2F3152" stroke-linecap="round" stroke-linejoin="round"/>
<path d="M19.3796 31.5226C19.3796 31.5226 22.5226 34.9249 28.3266 33.183" stroke="#2F3152" stroke-linecap="round" stroke-linejoin="round"/>
<path d="M23.3453 30.4255C23.8447 30.4255 24.2496 30.0206 24.2496 29.5212C24.2496 29.0217 23.8447 28.6168 23.3453 28.6168C22.8458 28.6168 22.4409 29.0217 22.4409 29.5212C22.4409 30.0206 22.8458 30.4255 23.3453 30.4255Z" fill="white"/>
<path d="M38.178 30.4255C38.6775 30.4255 39.0824 30.0206 39.0824 29.5212C39.0824 29.0217 38.6775 28.6168 38.178 28.6168C37.6786 28.6168 37.2737 29.0217 37.2737 29.5212C37.2737 30.0206 37.6786 30.4255 38.178 30.4255Z" fill="white"/>
<path d="M40.0904 35.8738C37.8444 35.8738 35.932 34.4209 35.25 32.4047" stroke="#2F3152" stroke-linecap="round" stroke-linejoin="round"/>
<path d="M19.1572 41.1515L20.6101 42.2338C23.4046 44.3241 26.7032 45.6436 30.1649 46.0142C30.2984 46.029 30.4392 46.0438 30.5726 46.0513C35.3686 46.4812 40.1423 45.058 43.9894 42.1596L44.7752 41.5666" stroke="#2F3152" stroke-linecap="round" stroke-linejoin="round"/>
<path d="M29.6313 27.9645C29.6313 27.9645 27.3408 24.6066 20.1357 25.8223" stroke="#2F3152" stroke-linecap="round" stroke-linejoin="round"/>
<path d="M47.3844 79.8675C47.3251 79.4376 47.2806 78.978 47.2584 78.474C47.1546 76.0871 48.0663 71.6618 48.8447 69.4899C49.623 67.318 51.4465 63.1818 51.8764 60.4465C52.3063 57.7113 52.0914 53.4416 50.2382 48.9644" stroke="#2F3152" stroke-linecap="round" stroke-linejoin="round"/>
<path d="M40.5796 47.9192C40.5796 47.9192 37.1698 53.5232 36.8511 55.1391" stroke="#2F3152" stroke-linecap="round" stroke-linejoin="round"/>
<path d="M47.6511 39.3577C47.9254 39.7283 48.2145 40.0989 48.5184 40.4622C50.5272 42.8268 52.3804 44.2426 53.8851 48.3195C55.3899 52.3964 56.3832 55.6728 57.3468 59.9869C58.3104 64.3085 58.7404 66.9325 58.6069 71.8693C58.5032 75.5682 58.5106 78.2664 58.4216 79.8675" stroke="#2F3152" stroke-linecap="round" stroke-linejoin="round"/>
<path d="M20.6026 42.2338C20.6026 42.2338 19.083 44.9171 19.3721 52.945C19.6612 60.9728 20.2097 70.2608 20.0318 73.8337C19.8539 77.4065 18.4084 79.0225 16.9556 79.9935" stroke="#2F3152" stroke-linecap="round" stroke-linejoin="round"/>
<path d="M26.7031 79.9935C26.9329 78.2368 26.9255 76.4355 26.9255 76.4355C26.9255 76.4355 26.8217 72.7885 27.5185 71.18C28.2153 69.5714 28.749 67.7183 28.8083 66.5397C28.8676 65.3611 26.7179 63.5079 27.3628 60.3427" stroke="#2F3152" stroke-linecap="round" stroke-linejoin="round"/>
<path d="M23.8123 53.9827C23.8123 53.9827 24.8055 57.6297 29.1493 62.5665" stroke="#2F3152" stroke-linecap="round" stroke-linejoin="round"/>
<path d="M38.6226 59.7201C38.6226 59.7201 40.283 65.109 39.7196 69.2675C39.1563 73.426 38.9413 76.4058 38.2742 77.9032C37.9777 78.5777 37.4514 79.1633 36.9622 79.8379" stroke="#2F3152" stroke-linecap="round" stroke-linejoin="round"/>
<path d="M39.5791 37.8159C39.5791 37.8159 41.4545 37.9938 42.0994 37.8159C42.7443 37.638 43.6264 36.6447 45.4425 36.8226C47.2586 37.0005 46.673 37.6231 48.2593 37.8974C49.8455 38.1717 49.6083 36.8819 51.1946 36.8226C52.7809 36.7633 54.13 36.7336 54.5377 37.5416C54.9454 38.3496 56.3538 39.2391 56.3538 39.2391" stroke="#2F3152" stroke-linecap="round" stroke-linejoin="round"/>
<path d="M39.2751 39.9507C40.0683 40.0619 43.2557 38.735 45.0718 40.4844C46.8879 42.2264 47.3475 44.1314 48.1406 43.8571C48.9338 43.5829 51.9507 43.2641 52.7512 43.8794" stroke="#2F3152" stroke-linecap="round" stroke-linejoin="round"/>
<path d="M25.6878 39.6097C25.6878 39.6097 23.1897 39.2687 22.8487 40.6326C22.5078 41.9966 23.3009 43.7015 20.9141 43.8201C18.5272 43.9387 15.4584 43.8201 14.8876 44.3908C14.3168 44.9616 13.8647 46.4367 11.7002 46.3255" stroke="#2F3152" stroke-linecap="round" stroke-linejoin="round"/>
<path d="M25.6879 37.4452C25.6879 37.4452 24.2128 37.7862 22.3893 36.5335C20.5658 35.2808 18.2975 35.555 17.3858 37.0079C16.474 38.4608 15.1101 39.3058 14.3169 38.6535C13.5238 38.0012 10.7885 36.6447 9.42463 36.7559C8.06071 36.867 4.87329 38.0382 4.87329 38.8759" stroke="#2F3152" stroke-linecap="round" stroke-linejoin="round"/>
<path d="M39.2751 55.8729C39.2751 55.8729 43.0259 51.7293 48.5631 51.2549C48.5631 51.2549 46.3319 56.2658 39.2751 55.8729Z" stroke="#2F3152" stroke-linecap="round" stroke-linejoin="round"/>
<path d="M41.1875 60.0018C41.1875 60.0018 44.4935 56.9848 49.9937 56.5994C49.9937 56.5994 47.5846 60.5429 41.1875 60.0018Z" stroke="#2F3152" stroke-linecap="round" stroke-linejoin="round"/>
<path d="M41.7065 63.5079C41.7065 63.5079 45.5166 61.1507 48.8745 63.1595C48.8745 63.1595 45.5833 65.3759 41.7065 63.5079Z" stroke="#2F3152" stroke-linecap="round" stroke-linejoin="round"/>
<path d="M24.0127 54.5387C22.9453 53.6936 21.3368 52.6262 19.3428 51.9369" stroke="#2F3152" stroke-linecap="round" stroke-linejoin="round"/>
<path d="M19.439 54.5757C20.6991 55.3096 22.3818 55.8729 24.5907 55.8952" stroke="#2F3152" stroke-linecap="round" stroke-linejoin="round"/>
<path d="M19.6539 59.6978C20.7806 59.9944 21.9889 60.1352 23.59 60.0018C23.59 60.0018 22.1445 58.6823 19.5649 57.6742" stroke="#2F3152" stroke-linecap="round" stroke-linejoin="round"/>
<path d="M19.8467 64.2566C20.8177 64.2566 21.9148 64.0565 23.0563 63.5079C23.0563 63.5079 21.6331 62.6332 19.7651 62.4034" stroke="#2F3152" stroke-linecap="round" stroke-linejoin="round"/>
</g>
<rect x="1" y="1" width="62" height="62" rx="31" stroke="#EAF1FE" stroke-width="2"/>
<defs>
<clipPath id="clip0_33_8653">
<rect width="64" height="64" rx="32" fill="white"/>
</clipPath>
</defs>
</svg>
