<svg width="64" height="64" viewBox="0 0 64 64" fill="none" xmlns="http://www.w3.org/2000/svg">
<g clip-path="url(#clip0_33_9402)">
<rect width="64" height="64" rx="32" fill="#F8C9C3"/>
<path d="M28.1602 80.4994C28.0453 80.4748 24.5903 79.8264 24.5903 79.8264L22.9572 78.9073L21.2912 78.2261L18.8046 77.4875L17.7951 78.0046H15.9733L15.3003 77.5368L13.9544 77.9061L12.428 77.6927L11.7878 77.3316L10.4419 77.9389L9.19451 77.4957L8.48053 76.0349L8.4559 72.9164C8.4559 72.9164 7.14283 72.465 6.16623 71.0699C5.18963 69.6747 4.9024 66.5808 4.9024 66.5808C4.9024 66.5808 4.56592 63.1012 5.18963 60.1549C5.81334 57.2087 5.63279 55.2227 7.83219 51.9811C10.0316 48.7394 11.4021 47.6397 11.4021 47.6397L15.0623 45.5552L16.7857 43.6512C16.7857 43.6512 14.9392 44.0369 15.0295 43.9795C15.1198 43.9221 16.3097 42.8634 16.3097 42.8634L14.4386 42.2479L15.1526 41.5175L13.0681 40.4998L14.0201 40.188L13.3553 39.6217L13.9216 38.9077L12.5675 38.5631L13.5769 36.7083L12.2064 36.8643L12.9286 35.0834L11.6976 35.8548L12.3705 34.2627L11.4596 34.0083L12.3705 32.8102L11.0082 32.2439C11.0082 32.2439 12.3131 31.6858 12.8793 30.701C13.4456 29.7162 13.503 29.1828 13.503 29.1828C13.503 29.1828 8.09481 17.4061 10.3845 15.1165C12.6742 12.8268 20.3803 19.7369 20.3803 19.7369L20.5198 20.5575L22.3909 18.2432L24.2374 17.1435C24.2374 17.1435 22.0955 19.5809 21.8903 20.6232L25.9362 17.8247L24.5739 19.9913L27.5693 17.5867L27.4545 18.6618L29.4487 16.9055L29.2681 17.8903L30.2119 16.4624L31.049 17.8001L31.566 17.0122L31.7302 17.7672L32.0584 16.3393L33.3469 18.2432L33.6341 17.1435L34.8077 18.5141L35.2837 18.0134C35.2837 18.0134 36.0387 18.99 36.0551 18.8998C36.0715 18.8095 35.2098 16.3639 35.2098 16.3639L37.2861 18.8998L37.4174 16.6675L38.4022 18.1365L38.9685 17.5867V18.5223L40.9463 17.4144L40.6837 18.2514L41.808 18.0216H43.4165L44.6968 19.2034C44.6968 19.2034 51.6479 13.3766 54.2658 15.1575C56.8837 16.9384 51.336 29.1582 51.336 29.1582L53.3384 32.6953L52.4193 35.5594L52.2962 36.7001C52.2962 36.7001 52.7147 37.3321 52.2962 37.5126C51.8776 37.6932 51.6397 38.7272 51.6397 38.7272L51.3278 39.8843V40.8856L49.4977 42.5023C49.4977 42.5023 50.4251 42.2068 52.4111 44.0041C54.3971 45.8014 56.1862 48.4522 57.0479 50.5613C57.9096 52.6704 57.4664 56.6835 57.4664 56.6835L56.5391 62.5349L54.9223 66.6465C54.9223 66.6465 55.5132 68.7556 55.2998 70.6595C55.0865 72.5635 53.7734 76.2155 53.7734 76.2155C53.7734 76.2155 54.4956 78.2672 53.5436 79.4243C52.5916 80.5815 50.0065 80.0973 50.0065 80.0973C50.0065 80.0973 48.9725 80.6225 47.364 80.483C45.7554 80.3435 45.3861 79.6623 45.3861 79.6623C45.3861 79.6623 43.4658 80.6717 42.1281 79.5146C40.7904 78.3574 41.1186 77.2988 41.1186 77.2988C41.1186 77.2988 41.4797 77.8404 39.8138 77.8732C38.1478 77.9061 35.6119 77.6599 35.6119 77.6599C35.6119 77.6599 35.7761 79.1535 34.7338 79.9742C33.6916 80.7948 32.5837 80.0973 32.5837 80.0973C32.5837 80.0973 31.6399 80.524 30.6305 80.3763C29.621 80.2286 29.383 79.9577 29.383 79.9577L28.1602 80.483V80.4994Z" fill="#B36C32"/>
<path d="M18.2137 44.4801C18.2137 44.4801 25.7065 48.4193 32.5263 48.4686C39.346 48.5178 46.8224 44.4145 46.8224 44.4145L46.7075 45.4731C46.7075 45.4731 46.7649 48.526 40.4622 50.6434C34.1594 52.7607 28.0208 51.6117 25.0253 50.8157C22.0299 50.0196 18.1891 48.1813 18.2137 44.4801Z" fill="#ABCC56"/>
<path d="M17.4177 31.9402C17.4177 31.9402 18.4846 37.6193 23.0968 37.6193C27.7089 37.6193 29.4406 32.3424 29.4406 32.3424L22.391 31.9402H17.4177Z" fill="white"/>
<path d="M35.3494 32.1126C35.3494 32.1126 35.415 37.053 41.1679 37.3813C46.9208 37.7096 47.3722 31.9484 47.3722 31.9484L35.3576 32.1126H35.3494Z" fill="white"/>
<path d="M30.2039 36.9956L32.1078 36.6017L33.4127 36.5524L35.0704 36.9956L33.6343 38.1117L32.2145 38.202L30.2039 36.9956Z" fill="#2F3152"/>
<path d="M30.4829 47.5905L30.2039 50.1099L30.5567 52.4652L34.299 52.5637L34.734 50.5695L34.3482 47.6725L30.4829 47.5905Z" fill="#FDCE0E"/>
<path d="M32.5181 58.7188C34.5758 58.7188 36.2439 57.0506 36.2439 54.9929C36.2439 52.9352 34.5758 51.2671 32.5181 51.2671C30.4604 51.2671 28.7922 52.9352 28.7922 54.9929C28.7922 57.0506 30.4604 58.7188 32.5181 58.7188Z" fill="#FDCE0E"/>
<path opacity="0.5" d="M13.5031 29.191C13.5031 29.191 14.9393 26.3022 14.9721 25.4159C15.005 24.5296 14.4715 24.3162 14.4715 24.3162L15.3825 24.4557L15.8092 22.5025L17.0813 22.3466L16.5314 21.0745C16.5314 21.0745 11.0903 14.2794 10.163 15.2888C9.23563 16.2982 10.4748 20.9514 10.4748 20.9514L13.5031 29.191Z" fill="#F7B94B"/>
<path opacity="0.5" d="M49.9982 25.6621L51.3359 29.1582C51.3359 29.1582 52.8214 25.26 53.404 23.6433C53.9867 22.0265 56.0302 15.8469 54.5612 15.5596C53.0922 15.2724 51.4837 17.5867 51.4837 17.5867L47.7578 21.8706L50.1624 25.0958L49.9982 25.6539V25.6621Z" fill="#F7B94B"/>
<path opacity="0.5" d="M15.4645 45.4403C15.4645 45.4403 13.339 46.5072 12.8548 55.9449C12.3706 65.3826 12.0997 69.8307 12.8548 71.2668L12.9122 72.1367L12.0095 72.3829L10.5651 71.9562L9.49 72.1121L8.44775 72.8918C8.44775 72.8918 6.04318 72.0136 5.31278 69.3136C4.58238 66.6136 4.85321 61.0413 5.62464 57.2169C6.39607 53.3926 9.64593 49.1661 11.7222 47.4756C13.7985 45.785 15.4645 45.4239 15.4645 45.4239V45.4403Z" fill="#2F3152"/>
<path opacity="0.5" d="M51.771 43.5692C51.771 43.5692 52.3783 44.6278 52.7804 49.3303C53.1826 54.0327 53.8801 59.0224 53.8801 59.0224L54.0935 63.2571L54.9224 66.6547C54.9224 66.6547 57.1382 62.5431 57.4747 56.6917C57.8111 50.8403 55.5297 46.7452 51.771 43.5692Z" fill="#2F3152"/>
<path opacity="0.2" d="M38.386 18.5305C38.386 18.5305 42.5304 21.9855 45.2222 26.6715C47.914 31.3576 48.4146 40.9184 41.4389 46.6959L46.8307 44.554H48.7264L48.9152 43.4625C48.9152 43.4625 49.9739 40.9758 50.6468 40.3193C51.3198 39.6628 51.6645 38.7272 51.6645 38.7272C51.6645 38.7272 51.1721 37.8409 51.7958 37.6767C52.4195 37.5126 52.3866 36.5524 52.3866 36.5524L53.2566 32.4983L51.3608 28.8627C51.3608 28.8627 56.6131 17.2995 54.4465 15.2888C52.28 13.2782 44.9267 19.0311 44.9267 19.0311L41.3814 17.2256L38.4106 18.5305H38.386Z" fill="#2F3152"/>
<path opacity="0.2" d="M42.4316 46.3841L43.3179 48.9692L45.3614 47.771C45.3614 47.771 47.5936 46.7287 48.3568 52.5637C49.12 58.3987 49.5796 64.7753 50.3018 67.0322C51.024 69.289 49.2267 73.0067 49.0133 75.5918C48.8 78.1769 46.2395 79.2109 45.148 78.0046C45.148 78.0046 41.7914 78.9565 41.4303 76.8802C41.4303 76.8802 41.0528 80.1711 43.3179 80.0644L45.5829 79.9495L47.9054 80.5076L50.0146 80.1219L52.0006 80.3271C52.0006 80.3271 53.8799 79.7362 53.8799 78.8416C53.8799 77.9471 53.7814 76.2319 53.7814 76.2319L55.234 71.275C55.234 71.275 55.4556 69.9702 54.9304 67.7133C54.4052 65.4565 53.1167 53.5567 53.1167 53.5567L52.4273 45.4403L50.3839 42.2397L47.3966 44.4883L46.8221 44.554L46.3626 44.5129L42.4316 46.3923V46.3841Z" fill="#2F3152"/>
<path opacity="0.2" d="M33.1581 48.1321C33.1581 48.1321 33.5438 50.0196 33.1581 52.0959L34.3153 52.457L34.701 50.8567L34.5779 47.7382L33.1499 48.1239L33.1581 48.1321Z" fill="#2F3152"/>
<path opacity="0.2" d="M33.4126 52.7361C33.4126 52.7361 34.3974 53.3434 34.3235 55.2637C34.2497 57.1841 32.7068 58.4561 32.7068 58.4561H33.9296L35.6202 57.3975L36.2439 55.6002V54.2953L35.6202 52.9412L34.7338 51.8579L34.3153 52.4734L33.4044 52.7443L33.4126 52.7361Z" fill="#2F3152"/>
<path d="M23.3266 18.1447C23.3266 18.6372 23.3184 19.146 23.3266 19.6712" stroke="#2F3152" stroke-linecap="round" stroke-linejoin="round"/>
<path d="M19.5762 21.0745C19.5762 20.9597 19.7813 20.2375 20.323 19.5809C20.323 19.5809 20.2327 20.3852 20.323 20.7052C20.323 20.7052 21.8166 17.9724 24.4592 17.0861C24.4592 17.0861 22.2187 18.7849 21.8166 20.8201L27.3972 16.6511C27.3972 16.6511 24.1801 19.8682 24.1801 20.3277C24.1801 20.3277 27.8896 17.3405 29.0385 15.9864C29.0385 15.9864 27.3726 18.432 27.2002 18.8916L29.7279 16.3639C29.7279 16.3639 29.3504 17.1681 29.2109 18.0873C29.2109 18.0873 29.9002 16.7086 30.3024 16.5362C30.3024 16.5362 30.8194 17.283 30.9917 17.915C30.9917 17.915 31.599 17.1928 31.4267 16.8235C31.2543 16.4542 31.9191 17.5457 31.9191 17.8329C31.9191 17.8329 32.1242 16.684 31.5416 15.9946C31.5416 15.9946 33.585 17.201 33.6425 19.7615" stroke="#2F3152" stroke-linecap="round" stroke-linejoin="round"/>
<path d="M36.129 19.0311C35.7268 18.3663 35.0949 17.8657 35.0949 17.8657C35.0949 18.194 34.8897 18.711 34.8897 18.711C34.4548 17.677 33.429 17.0122 33.429 17.0122C33.4946 17.5046 33.429 18.5223 33.429 18.5223" stroke="#2F3152" stroke-linecap="round" stroke-linejoin="round"/>
<path d="M35.0703 16.2408C36.0469 17.0779 37.2287 19.2034 37.2287 19.2034C37.2287 19.2034 37.6062 17.5621 37.2287 16.5609C37.2287 16.5609 38.2627 17.0779 38.4351 18.3417C38.4515 18.4484 39.067 17.8493 39.067 17.0204C39.067 17.0204 39.5019 17.7426 38.9193 19.0311C38.9193 19.0311 41.1023 17.1599 41.5372 15.9864C41.5372 15.9864 40.9299 17.8001 40.5606 18.5305C40.5606 18.5305 41.2254 17.7098 42.284 17.0204C42.284 17.0204 41.4469 18.0545 41.4223 18.7438C41.4223 18.7438 42.4317 17.7919 43.3181 17.4226C43.3181 17.4226 42.9159 18.432 42.9159 18.5305C42.9159 18.5305 43.6381 18.1694 43.9254 18.1448C43.9254 18.1448 43.753 18.8669 43.7776 19.0393C43.7776 19.0393 44.8691 18.8095 45.2138 18.5387" stroke="#2F3152" stroke-linecap="round" stroke-linejoin="round"/>
<path d="M44.5493 19.6876C44.7381 19.4989 49.8837 14.3532 53.7326 14.9277C57.5816 15.5022 51.2296 29.1171 51.2296 29.1171C51.8697 30.4466 52.5098 32.4819 54.463 33.3108C54.463 33.3108 53.1418 33.3108 52.2472 32.9907C52.2472 32.9907 53.2566 34.2792 53.7408 34.5007C54.225 34.7223 52.4031 34.0247 52.3129 34.0247C52.2226 34.0247 53.1417 35.4199 53.3715 36.1995C53.3715 36.1995 51.9107 35.2968 51.7466 34.9193C51.7466 34.9193 52.6083 36.4868 52.3867 37.4962" stroke="#2F3152" stroke-linecap="round" stroke-linejoin="round"/>
<path d="M52.3046 38.5549C52.9365 38.8585 50.8684 38.8995 50.8684 38.8995" stroke="#2F3152" stroke-linecap="round" stroke-linejoin="round"/>
<path d="M51.3364 36.7083C51.3364 36.7083 51.5252 37.3074 51.8863 37.8655" stroke="#2F3152" stroke-linecap="round" stroke-linejoin="round"/>
<path d="M50.6306 37.8491C50.6306 37.8491 51.4103 38.4892 52.3048 38.5549" stroke="#2F3152" stroke-linecap="round" stroke-linejoin="round"/>
<path d="M49.8921 41.0087C50.1547 40.9184 51.238 40.1388 51.7714 39.3427" stroke="#2F3152" stroke-linecap="round" stroke-linejoin="round"/>
<path d="M49.0139 42.3217C49.4817 42.1576 50.8768 41.6652 51.5826 40.6968" stroke="#2F3152" stroke-linecap="round" stroke-linejoin="round"/>
<path d="M50.3105 42.3792C50.3105 42.3792 49.3175 42.9044 48.6773 42.9947C48.6773 42.9947 49.2272 43.8072 49.5719 43.9549C49.9166 44.1026 48.4804 43.9138 47.9223 43.6676L48.7102 44.5458C48.7102 44.5458 47.9387 44.4883 47.6679 44.4062C47.3971 44.3242 47.3068 44.554 46.322 44.4801" stroke="#2F3152" stroke-linecap="round" stroke-linejoin="round"/>
<path d="M54.6108 15.4858C53.0597 14.6651 47.3643 22.3056 47.3643 22.3056C47.3643 22.3056 48.3819 22.1989 49.0138 22.4861C49.0138 22.4861 48.2998 22.7733 48.1193 23.0934C48.1193 23.0934 48.6609 23.0113 49.0138 23.0934C49.0138 23.0934 48.6363 23.5037 48.5953 23.7417" stroke="#2F3152" stroke-linecap="round" stroke-linejoin="round"/>
<path d="M34.5862 48.288C40.9546 47.6725 46.3218 44.4883 46.3218 44.4883" stroke="#2F3152" stroke-linecap="round" stroke-linejoin="round"/>
<path d="M30.483 48.2962C24.0489 47.6889 18.4602 44.4883 18.4602 44.4883C18.0662 44.7099 16.072 44.554 16.072 44.554L16.8599 43.6759C16.2936 43.9221 14.8574 44.1108 15.2103 43.9631C15.5632 43.8154 16.1048 43.0029 16.1048 43.0029C15.4565 42.9126 14.4717 42.3874 14.4717 42.3874L15.1611 41.5667C14.8984 41.4764 13.5361 41.2467 13.0027 40.4588C13.0027 40.4588 13.7495 40.3357 14.3158 40.1798L13.3228 39.6299C13.3228 39.6299 13.6346 39.4166 13.9136 38.8995C13.9136 38.8995 11.8455 38.8585 12.4775 38.5549C13.1094 38.2512 13.4459 36.7001 13.4459 36.7001L12.3872 36.9545C12.1656 35.9451 13.0273 34.9275 13.0273 34.9275C12.8632 35.305 11.4024 36.2077 11.4024 36.2077C11.6404 35.4199 12.5513 34.033 12.4611 34.033C12.3708 34.033 11.0987 34.1807 11.5829 33.9591C12.0671 33.7375 12.5185 32.9989 12.5185 32.9989C11.624 33.3108 11.0823 32.3095 11.0823 32.3095C12.4775 31.374 13.0027 30.7339 13.5361 29.1171C13.5361 29.1171 7.18413 15.5022 11.0331 14.9277C14.8902 14.3532 20.0276 19.4989 20.2164 19.6876" stroke="#2F3152" stroke-linecap="round" stroke-linejoin="round"/>
<path d="M10.1631 15.4858C11.7142 14.6651 17.4096 22.3056 17.4096 22.3056C17.4096 22.3056 16.2607 22.1989 15.2759 22.7323C15.2759 22.7323 16.1704 23.1016 16.2935 23.4627C16.2935 23.4627 15.6862 23.5448 15.3579 23.6679C15.0297 23.791 15.7272 23.873 15.8093 24.0782" stroke="#2F3152" stroke-linecap="round" stroke-linejoin="round"/>
<path d="M35.21 37.0859C35.21 37.3813 34.0938 38.2348 32.7069 38.2348C31.32 38.2348 30.2039 37.3813 30.2039 37.0859C30.2039 36.7904 31.32 36.5524 32.7069 36.5524C34.0938 36.5524 35.21 36.7904 35.21 37.0859Z" stroke="#2F3152" stroke-linecap="round" stroke-linejoin="round"/>
<path d="M32.7068 39.515V38.2348" stroke="#2F3152" stroke-linecap="round" stroke-linejoin="round"/>
<path d="M32.7068 39.6299C37.1877 39.7448 39.6497 42.4366 39.6497 42.4366C39.6497 42.4366 39.8302 42.8223 39.781 43.5363" stroke="#2F3152" stroke-linecap="round" stroke-linejoin="round"/>
<path d="M32.707 39.6299C28.2261 39.7448 25.7641 42.4366 25.7641 42.4366C25.7641 42.4366 25.5835 42.8223 25.6328 43.5363" stroke="#2F3152" stroke-linecap="round" stroke-linejoin="round"/>
<path d="M31.2545 34.6156C31.2545 34.6156 33.06 34.3284 34.0612 34.6156C34.0612 34.6156 32.4445 33.5652 31.4925 33.5652C30.5405 33.5652 32.5183 33.1877 33.0764 33.1877" stroke="#2F3152" stroke-linecap="round" stroke-linejoin="round"/>
<path d="M30.4747 51.8333C23.4087 51.3573 17.9595 48.2798 17.9595 44.554" stroke="#2F3152" stroke-linecap="round" stroke-linejoin="round"/>
<path d="M46.8142 44.554C46.8142 48.2306 41.5127 51.2753 34.5862 51.8169" stroke="#2F3152" stroke-linecap="round" stroke-linejoin="round"/>
<path d="M34.4468 52.4652H30.5978L30.5075 52.0549C30.2039 50.6351 30.2367 49.1579 30.5978 47.7546H34.4468L34.4796 47.8859C34.8243 49.3549 34.8243 50.8731 34.4796 52.3421L34.4468 52.4734V52.4652Z" stroke="#2F3152" stroke-linecap="round" stroke-linejoin="round"/>
<path d="M15.6534 24.4393C15.6534 24.4393 14.9641 24.3572 14.4717 24.4393C14.4717 24.4393 14.923 24.9317 15.0626 25.2928" stroke="#2F3152" stroke-linecap="round" stroke-linejoin="round"/>
<path d="M48.8413 24.0782C48.8413 24.0782 49.8589 23.2247 50.6304 23.2247" stroke="#2F3152" stroke-linecap="round" stroke-linejoin="round"/>
<path d="M49.8919 24.0782C49.8919 24.0782 49.4077 24.5706 49.3667 24.8578C49.3667 24.8578 50.3023 24.7758 50.6305 24.8578C50.6305 24.8578 50.0232 25.3831 49.9986 25.6703" stroke="#2F3152" stroke-linecap="round" stroke-linejoin="round"/>
<path d="M34.5864 51.8169C35.6287 52.4735 36.2442 53.6716 36.2442 54.9929C36.2442 57.0528 34.5782 58.7188 32.5183 58.7188C30.4584 58.7188 28.7925 57.0528 28.7925 54.9929C28.7925 53.688 29.4654 52.5309 30.4913 51.8662" stroke="#2F3152" stroke-linecap="round" stroke-linejoin="round"/>
<path d="M41.9148 39.8023C41.9148 39.8023 49.2024 37.4634 54.9224 40.3193" stroke="#2F3152" stroke-linecap="round" stroke-linejoin="round"/>
<path d="M42.0378 40.9348C42.0378 40.9348 49.5798 40.2454 54.6762 44.119" stroke="#2F3152" stroke-linecap="round" stroke-linejoin="round"/>
<path d="M22.5059 39.8023C22.5059 39.8023 15.2184 37.4634 9.49829 40.3193" stroke="#2F3152" stroke-linecap="round" stroke-linejoin="round"/>
<path d="M22.391 40.9348C22.391 40.9348 14.8491 40.2454 9.75269 44.119" stroke="#2F3152" stroke-linecap="round" stroke-linejoin="round"/>
<path d="M29.4408 32.2439C29.0058 35.1491 26.4946 37.3813 23.4581 37.3813C20.4216 37.3813 17.8365 35.0834 17.459 32.1044" stroke="#2F3152" stroke-linecap="round" stroke-linejoin="round"/>
<path d="M19.9209 31.9402C20.1507 33.7129 21.6607 35.0834 23.4908 35.0834C25.3209 35.0834 26.7899 33.7539 27.0525 32.0223" fill="#2F3152"/>
<path d="M18.9363 32.0387C19.0512 32.9168 19.798 33.5898 20.7007 33.5898C21.6035 33.5898 22.3339 32.9333 22.457 32.0798" fill="white"/>
<path d="M16.072 32.1126C16.072 32.1126 21.4556 31.6694 29.4408 32.2521" stroke="#2F3152" stroke-linecap="round" stroke-linejoin="round"/>
<path d="M29.4408 32.2439C29.0058 35.1491 26.4946 37.3813 23.4581 37.3813C20.4216 37.3813 17.8365 35.0834 17.459 32.1044" stroke="#2F3152" stroke-linecap="round" stroke-linejoin="round"/>
<path d="M19.9209 31.9402C20.1507 33.7129 21.6607 35.0834 23.4908 35.0834C25.3209 35.0834 26.7899 33.7539 27.0525 32.0223" fill="#2F3152"/>
<path d="M18.9363 32.0387C19.0512 32.9168 19.798 33.5898 20.7007 33.5898C21.6035 33.5898 22.3339 32.9333 22.457 32.0798" fill="white"/>
<path d="M16.072 32.1126C16.072 32.1126 21.4556 31.6694 29.4408 32.2521" stroke="#2F3152" stroke-linecap="round" stroke-linejoin="round"/>
<path d="M47.3888 32.2439C46.9538 35.1491 44.4426 37.3813 41.4061 37.3813C38.3696 37.3813 35.7845 35.0834 35.407 32.1044" stroke="#2F3152" stroke-linecap="round" stroke-linejoin="round"/>
<path d="M37.8608 31.9402C38.0906 33.7129 39.6007 35.0834 41.4308 35.0834C43.2609 35.0834 44.7299 33.7539 44.9925 32.0223" fill="#2F3152"/>
<path d="M36.876 32.0387C36.9909 32.9168 37.7377 33.5898 38.6404 33.5898C39.5432 33.5898 40.2736 32.9333 40.3967 32.0798" fill="white"/>
<path d="M35.407 32.1126C35.407 32.1126 40.7906 31.6694 48.7757 32.2521" stroke="#2F3152" stroke-linecap="round" stroke-linejoin="round"/>
<path d="M29.145 76.2237C30.0067 76.6997 30.4006 80.4912 28.3489 80.4912C27.5036 80.4912 24.5985 80.1055 23.9419 79.5638C20.4623 76.7325 15.3823 78.3 13.4045 73.6222C11.6236 69.4121 12.6084 61.1972 12.9695 54.0491C13.3306 46.9011 16.2194 44.5868 16.2194 44.5868" stroke="#2F3152" stroke-linecap="round" stroke-linejoin="round"/>
<path d="M50.376 42.2397C50.376 42.2397 52.6 43.6841 52.7805 49.3303C52.9611 54.9765 53.9787 57.0856 53.9787 61.23C53.9787 65.3744 55.4231 68.2632 55.3575 70.1835C55.2918 72.1039 54.0033 75.1814 53.6997 76.5027" stroke="#2F3152" stroke-linecap="round" stroke-linejoin="round"/>
<path d="M50.9915 42.8552C50.9915 42.8552 56.9577 46.8683 57.4994 53.0561C58.197 60.9264 54.8158 67.024 54.8158 67.024" stroke="#2F3152" stroke-linecap="round" stroke-linejoin="round"/>
<path d="M8.46417 72.9C8.46417 72.9 6.08422 72.703 5.23893 68.731C4.39364 64.7671 5.18148 58.9403 6.37966 55.2145C7.57784 51.4886 11.6155 46.2938 15.4563 45.4321" stroke="#2F3152" stroke-linecap="round" stroke-linejoin="round"/>
</g>
<rect x="1" y="1" width="62" height="62" rx="31" stroke="#EAF1FE" stroke-width="2"/>
<defs>
<clipPath id="clip0_33_9402">
<rect width="64" height="64" rx="32" fill="white"/>
</clipPath>
</defs>
</svg>
