<svg width="64" height="64" viewBox="0 0 64 64" fill="none" xmlns="http://www.w3.org/2000/svg">
<g clip-path="url(#clip0_33_9669)">
<rect width="64" height="64" rx="32" fill="#F2C691"/>
<path d="M14.6491 64.3375C14.6491 64.3375 14.7121 57.0735 15.3499 53.9834C15.9877 50.8932 16.7448 50.1357 16.7448 50.1357C16.7448 50.1357 14.5845 47.9953 12.8467 45.6593C11.1089 43.3232 10.5722 40.8233 10.5722 40.8233L5.2097 46.9017C5.2097 46.9017 1.76558 50.3129 -0.434418 51.8697C-2.63441 53.4265 -5.57492 54.1857 -5.57492 54.1857L-5.31317 55.5268L-4.77808 57.9414L-6.07853 58.6153L-9.06874 60.8961L-12.2014 63.8509V97.1355H-6.9317C-6.68155 96.7977 -5.46393 94.8931 -5.12101 92.9902C-4.73833 90.8665 -4.57929 88.1308 -4.57929 88.1308L-3.58532 91.109C-3.58532 91.109 -4.92718 93.4216 -4.57266 95.1891C-4.21815 96.9549 -4.21815 97.1355 -4.21815 97.1355H12.3431L14.4354 91.1157C14.4354 91.1157 15.4775 86.0389 15.8237 84.3149C16.1699 82.5909 15.3366 75.7266 15.3366 75.7266L14.6491 64.3341V64.3375Z" fill="#E52813"/>
<path d="M47.4984 50.5387C47.4984 50.5387 49.2793 52.1808 49.0242 55.5937C48.7691 59.0049 48.3185 63.503 48.3185 63.503L46.9335 71.2435C46.9335 71.2435 45.9627 79.1546 45.8981 82.631C45.8335 86.1075 46.1748 89.5037 46.8341 92.6005C47.4935 95.6991 48.8072 97.1388 48.8072 97.1388H77.0891V69.1634L69.4305 60.5483L67.2255 57.9431C67.2255 57.9431 68.347 54.6907 69.4951 51.6005C70.6431 48.5103 70.451 44.0038 69.24 41.5574C68.029 39.111 66.48 37.0275 62.9183 34.7534C59.3565 32.4792 55.4651 31.5879 55.4651 31.5879H54.395C54.395 31.5879 55.5927 36.2784 54.6368 39.8184C53.681 43.3584 51.1298 47.0923 51.1298 47.0923L47.4984 50.5353V50.5387Z" fill="#E52813"/>
<path d="M16.7447 50.1374C16.7447 50.1374 14.6755 53.5018 14.6938 60.0199C14.712 66.538 15.2902 74.9708 15.2902 74.9708C15.2902 74.9708 16.1052 81.8234 15.8236 84.3199C15.542 86.8165 14.0941 92.3196 14.0941 92.3196L12.343 97.1405H48.8086C48.8086 97.1405 46.8472 95.0386 46.2144 89.2211C45.5815 83.4036 45.8267 80.9438 46.2144 77.0242C46.602 73.1047 48.1609 64.3508 48.1609 64.3508C48.1609 64.3508 49.3437 60.1654 49.024 55.5937C48.7043 51.0219 47.4982 50.5387 47.4982 50.5387C47.4982 50.5387 43.5389 53.0185 38.246 54.0486C32.9531 55.0786 25.2365 53.7275 25.2365 53.7275C25.2365 53.7275 19.1617 51.4417 16.7463 50.1374H16.7447Z" fill="#F8C9C3"/>
<path d="M16.7447 50.1374C16.7447 50.1374 14.934 48.3465 12.8466 45.6609C10.7576 42.9754 9.95914 37.7432 9.95914 37.7432C9.95914 37.7432 9.60959 32.6765 11.5876 28.17C13.5656 23.6635 16.6701 20.9462 16.6701 20.9462L15.6629 17.9497C15.6629 17.9497 13.8191 15.423 14.3939 14.7157C14.9688 14.0084 17.7221 14.622 17.7221 14.622L20.5814 15.8745L22.1022 16.836C22.1022 16.836 26.5817 14.3461 32.4461 14.3461C38.3106 14.3461 42.4356 16.836 42.4356 16.836C42.4356 16.836 48.5154 13.3646 50.3012 14.7157C50.3012 14.7157 50.5564 15.2207 49.6634 16.8995C48.7705 18.5784 48.146 20.8476 48.146 20.8476C48.146 20.8476 50.9954 23.5515 52.1152 26.0213C53.2351 28.4911 54.8321 31.0328 55.0226 35.6195C55.2131 40.2063 52.1152 45.5105 52.1152 45.5105C52.1152 45.5105 50.1687 48.5454 48.8335 49.5421C47.4982 50.5387 43.6681 52.3095 43.6681 52.3095C43.6681 52.3095 38.7861 54.6338 32.1712 54.6389C23.5799 54.6439 16.748 50.1374 16.748 50.1374H16.7447Z" fill="white"/>
<path d="M30.5659 31.1749C30.5659 31.1749 30.6703 32.1464 31.5516 32.8203C32.4329 33.4942 32.4826 33.3471 32.4826 33.3471C32.4826 33.3471 33.3143 33.0946 33.9222 32.2685C34.5302 31.4424 34.2734 31.1749 34.2734 31.1749C34.2734 31.1749 33.687 30.7769 32.4826 30.7251C31.2783 30.6732 30.5659 31.1749 30.5659 31.1749Z" fill="#F980A5"/>
<path d="M45.6313 18.555C45.6313 18.555 47.8744 15.938 49.0871 15.326L50.2997 14.714C50.2997 14.714 50.2252 15.7859 49.0871 18.035C47.949 20.284 48.1444 20.8459 48.1444 20.8459L45.6313 18.5533V18.555Z" fill="#F980A5"/>
<path d="M16.6703 20.9462L19.1287 18.7757L16.9652 16.2424C16.9652 16.2424 14.4968 14.2274 14.3941 14.714C14.2914 15.2006 15.0948 16.8343 15.0948 16.8343L16.0789 19.1821L16.6719 20.9445L16.6703 20.9462Z" fill="#F980A5"/>
<path d="M2.21442 64.2438C2.7039 64.2438 3.10071 63.8433 3.10071 63.3492C3.10071 62.8551 2.7039 62.4546 2.21442 62.4546C1.72493 62.4546 1.32812 62.8551 1.32812 63.3492C1.32812 63.8433 1.72493 64.2438 2.21442 64.2438Z" fill="#A06739"/>
<path opacity="0.15" d="M37.2603 14.9013C37.2603 14.9013 51.9215 19.1319 51.1594 33.6598C50.7005 42.3785 43.9697 51.5336 32.4826 51.5336C20.9956 51.5336 13.7396 46.8984 10.9581 40.825C10.9581 40.825 10.8173 43.4018 13.7396 46.8984C16.6635 50.3965 19.5858 52.0018 25.2349 53.7258C30.884 55.4499 36.7037 54.6957 41.5079 53.1205C46.3121 51.5437 47.7932 50.1925 50.0776 48.1726C52.3621 46.1526 54.8123 40.9705 55.0044 36.7098C55.1966 32.4491 53.5102 28.0295 50.9093 24.1568C48.3084 20.284 44.1237 16.2825 37.257 14.8996L37.2603 14.9013Z" fill="#2F3152"/>
<path opacity="0.4" d="M6.2517 56.1823C6.2517 56.1823 6.13739 55.2325 6.95742 55.0017C7.77745 54.771 9.93603 60.0199 9.93603 60.0199L12.5866 66.3692L15.2902 74.9691L14.9109 68.0748C14.9109 68.0748 14.2863 62.667 14.7701 58.4531C15.2538 54.2392 15.8021 52.3563 15.8021 52.3563L16.3339 50.8029L16.8392 50.226L13.738 46.8984L12.0151 44.676C12.0151 44.676 10.4396 46.0539 8.62067 49.7243C6.80169 53.3948 6.1142 54.5352 6.25004 56.1823H6.2517Z" fill="#2F3152"/>
<path opacity="0.15" d="M42.6892 16.6939C42.6892 16.6939 44.9289 15.3076 47.0063 14.6388C49.0837 13.9699 50.298 14.714 50.298 14.714C50.298 14.714 50.5813 15.1906 49.9419 16.3862C49.3024 17.5818 48.8684 18.6737 48.8684 18.6737L48.166 20.7656C48.166 20.7656 45.8831 18.4062 42.6875 16.6922L42.6892 16.6939Z" fill="#2F3152"/>
<path opacity="0.1" d="M19.1584 18.6754C19.1584 18.6754 17.6476 17.1002 16.3786 15.7558C15.1096 14.4114 14.3062 14.9013 14.3062 14.9013C14.3062 14.9013 14.8909 13.6639 17.3179 14.5435C19.7448 15.423 22.1022 16.8176 22.1022 16.8176L19.1601 18.6737L19.1584 18.6754Z" fill="#2F3152"/>
<path opacity="0.2" d="M45.7605 18.5082C45.7605 18.5082 48.9064 14.4097 50.3742 15.0786C50.9905 15.3595 50.3328 15.1973 49.473 17.3159C48.6132 19.4346 48.1676 20.7673 48.1676 20.7673L45.7605 18.5082Z" fill="#2F3152"/>
<path opacity="0.2" d="M22.3308 26.4326C22.3308 26.4326 23.4673 27.757 25.4618 27.8372C27.4564 27.9175 29.2058 26.4326 29.2058 26.4326C29.2058 26.4326 27.41 27.4092 25.5397 27.2787C23.6694 27.1483 22.3308 26.4326 22.3308 26.4326Z" fill="#2F3152"/>
<path opacity="0.2" d="M35.665 26.4326C35.665 26.4326 36.8015 27.757 38.7961 27.8372C40.7906 27.9175 42.54 26.4326 42.54 26.4326C42.54 26.4326 40.7442 27.4092 38.8739 27.2787C37.0036 27.1483 35.665 26.4326 35.665 26.4326Z" fill="#2F3152"/>
<path opacity="0.4" d="M53.4009 43.1109C53.4009 43.1109 54.9863 44.9904 56.0763 50.1374C57.1664 55.286 56.4458 58.5016 56.4458 58.5016C56.4458 58.5016 55.9852 59.938 54.322 63.8559C52.6587 67.7738 52.112 68.946 52.112 68.946C52.112 68.946 50.9143 68.563 50.3047 69.4443C49.695 70.3255 49.7696 71.8372 49.7696 71.8372L50.1539 73.2752L47.876 78.8586C47.876 78.8586 47.4221 80.2097 46.6916 83.1243C45.9626 86.0389 46.0521 88.0272 46.0521 88.0272C46.0521 88.0272 45.305 82.6979 46.3884 75.332C47.4718 67.9661 48.7275 60.9011 48.7275 60.9011C48.7275 60.9011 49.208 55.3077 48.759 52.8379C48.3117 50.3681 47.495 50.6139 47.495 50.6139C47.495 50.6139 48.1245 50.6022 50.076 48.1742C52.0292 45.7462 53.3976 43.1126 53.3976 43.1126L53.4009 43.1109Z" fill="#2F3152"/>
<path opacity="0.4" d="M56.4457 47.3314C56.4457 47.3314 61.3029 49.2093 64.4638 52.4015C65.804 53.7543 66.7731 52.7526 67.4556 50.9684C68.2177 48.9752 68.7561 46.2713 68.1117 43.1126C66.7201 36.2851 54.9846 33.2501 54.9846 33.2501C54.9846 33.2501 55.6224 38.3268 53.9558 41.942L56.4457 47.3331V47.3314Z" fill="#2F3152"/>
<path opacity="0.2" d="M-1.32397 62.2138C-1.32397 62.2138 2.75132 59.7239 3.9971 54.087C5.30583 48.1726 8.55779 44.676 8.55779 44.676L10.675 42.3166L12.0168 44.676C12.0168 44.676 10.5822 46.5372 8.62239 49.7243C6.66261 52.9115 6.21532 54.1188 6.25177 56.1823C6.30146 59.0534 7.67812 62.1921 7.67812 62.1921C7.67812 62.1921 4.13294 65.4879 1.75403 66.2621L-1.32397 62.2138Z" fill="#2F3152"/>
<path opacity="0.2" d="M56.7142 88.3047C56.7142 88.3047 57.0157 90.1157 55.9124 91.119C55.9124 91.119 55.5496 96.174 63.4185 97.1388H77.089V69.1634L71.1831 62.5549L67.3033 57.9431C67.3033 57.9431 68.2724 54.4833 69.78 50.5487C71.2875 46.6141 69.8462 42.8617 67.9279 39.3184C66.0095 35.7751 60.5874 33.3337 58.8926 32.7133C57.1979 32.0929 54.4943 31.6013 54.4943 31.6013C54.4943 31.6013 55.3856 33.6213 55.0045 36.7065C54.6235 39.7916 53.9542 41.937 53.9542 41.937C53.9542 41.937 56.6496 46.1609 57.3735 50.6474C58.0975 55.1355 58.6707 56.3261 58.2565 58.4798C57.8423 60.6336 55.0542 66.5648 55.0542 66.5648L53.5649 70.0429C53.5649 70.0429 56.1808 73.7752 59.5205 73.8371C62.8603 73.899 63.6737 70.879 65.6285 68.4176C67.5833 65.9561 69.7419 66.1016 70.7922 66.8708C71.8425 67.64 69.9506 70.7971 69.9506 70.7971L67.7887 74.4708L66.5264 76.7383C66.5264 76.7383 67.6429 77.8353 67.2221 79.2783C66.8014 80.7214 66.1818 81.4171 66.1818 81.4171C66.1818 81.4171 67.9759 82.9287 67.3166 85.2814C66.6572 87.6342 62.6996 88.4502 62.6996 88.4502L56.7109 88.2997L56.7142 88.3047Z" fill="#2F3152"/>
<path opacity="0.2" d="M26.6464 57.6471C28.7951 57.7457 30.9487 57.7591 33.0957 57.6504C37.5188 57.428 44.6191 57.6555 44.7732 61.3811C44.9968 66.8006 42.2187 82.1695 44.3491 89.6542L46.4779 97.1405H48.8071C48.8071 97.1405 46.5988 96.0803 45.8898 87.0941C45.1807 78.1078 46.8258 72.4308 46.8258 72.4308L49.0771 58.6705C49.0771 58.6705 48.9893 55.7793 48.7607 52.8362C48.5321 49.8932 47.4967 50.6123 47.4967 50.6123C47.4967 50.6123 42.0481 54.6355 31.9509 54.6355C21.8538 54.6355 16.8392 50.226 16.8392 50.226C16.8392 50.226 15.8469 51.1223 15.3781 54.2894C14.9092 57.4565 14.5995 62.4211 14.9109 68.0748C15.2223 73.7284 15.7657 80.0559 15.7657 80.0559C15.7657 80.0559 16.2395 84.83 14.8728 89.3615C13.5061 93.8931 12.2852 97.1388 12.2852 97.1388H13.4233C13.4233 97.1388 17.6559 90.3481 16.7464 78.2466C15.8999 66.9711 14.1538 57.0719 26.6481 57.6454L26.6464 57.6471Z" fill="#2F3152"/>
<path opacity="0.4" d="M2.94849 65.7304L3.89276 66.8942L8.46007 63.8542L7.67815 62.1921L2.94849 65.7304Z" fill="#2F3152"/>
<path opacity="0.2" d="M57.814 60.0199L53.5681 70.0463C53.5681 70.0463 56.2601 74.0093 59.5237 73.8404C62.7872 73.6715 63.9551 70.6165 63.9551 70.6165L62.0981 71.2435C62.0981 71.2435 59.5287 70.1131 58.5198 66.9327C57.5109 63.7522 57.814 60.0199 57.814 60.0199Z" fill="#2F3152"/>
<path opacity="0.2" d="M56.4076 58.6621C56.4076 58.6621 57.7893 57.5902 57.9069 59.1403C57.9069 59.1403 58.3509 57.1036 58.0924 55.0519C57.834 53.0001 56.9427 48.6959 56.9427 48.6959L55.4369 44.6994L53.7438 42.3149L53.4009 43.462C53.4009 43.462 55.1188 45.7479 55.793 48.6842C56.4673 51.6206 56.676 54.281 56.676 54.281C56.676 54.281 56.7323 57.7541 56.4076 58.6621Z" fill="#2F3152"/>
<path opacity="0.4" d="M16.8391 50.226C16.8391 50.226 22.3606 53.5937 32.1679 53.8396C41.9751 54.0854 47.9107 50.1374 47.9107 50.1374C47.9107 50.1374 40.9861 54.7643 31.9508 54.6355C22.9156 54.5067 16.8391 50.226 16.8391 50.226Z" fill="#2F3152"/>
<path opacity="0.2" d="M52.1138 68.9443C52.1138 68.9443 54.163 65.0799 54.7445 62.8526C55.3276 60.6252 56.2388 57.8294 57.2493 58.1571C58.2598 58.4849 57.8142 60.0199 57.8142 60.0199L53.5683 70.0463L52.1138 68.9443Z" fill="#2F3152"/>
<path opacity="0.2" d="M45.2668 34.3838L43.4511 36.8787C43.4511 36.8787 41.4698 38.0994 40.4874 38.0893L39.2533 37.5308L36.6076 36.1881C36.6076 36.1881 34.4292 34.7065 32.5953 34.7567C30.7631 34.8085 27.5823 36.663 27.5823 36.663L24.7031 37.9924L22.0525 37.1931L19.551 34.5343C21.5787 38.7131 23.9311 38.9221 25.9357 38.2014C28.4189 37.3068 30.1733 35.454 32.5555 35.454C33.9106 35.454 36.7766 37.0944 38.3636 37.9171C39.8148 38.6696 41.1517 38.8251 42.6195 38.1061C45.0531 36.9138 45.7224 34.6881 45.7224 34.6881L45.2651 34.3838H45.2668Z" fill="#2F3152"/>
<path opacity="0.15" d="M36.0627 37.7432C36.0627 37.7432 36.013 37.4038 35.8854 37.7432C35.7264 38.0475 35.2609 38.3352 34.696 38.2683C33.5579 38.1362 30.566 38.5392 30.566 38.5392C30.566 38.5392 31.8068 38.3786 32.6368 38.5525C32.7445 38.5743 32.882 38.6144 33.0377 38.6612L30.682 38.7682L29.736 38.5659L28.7305 37.7399C28.7305 37.7399 29.0734 39.9137 30.682 39.7565C32.2906 39.601 33.5446 39.5575 34.3762 39.7649C35.2079 39.9722 36.3244 38.6779 36.0627 37.7399V37.7432Z" fill="#2F3152"/>
<path opacity="0.15" d="M32.8885 31.0328C32.8885 31.0328 33.3722 31.0712 33.3722 31.7167C33.3722 32.3621 32.5704 33.0243 32.1679 32.8889C31.7653 32.7534 32.1861 33.5695 32.7228 33.2484C33.2596 32.9273 34.2867 31.8237 34.3231 31.3221C34.3596 30.8204 33.238 30.7151 33.238 30.7151L32.8901 31.0344L32.8885 31.0328Z" fill="#2F3152"/>
<path opacity="0.5" d="M6.35274 46.0221C6.35274 46.0221 3.48844 49.9568 0.02775 52.2543C-3.6748 54.7124 -4.68369 54.8462 -4.68369 54.8462C-4.68369 54.8462 -3.72947 60.264 -1.32571 62.2138C-1.32571 62.2138 -3.15959 60.7925 -4.30266 58.3645C-5.44573 55.9381 -5.57495 54.1874 -5.57495 54.1874C-5.57495 54.1874 -3.39649 53.7426 -0.846947 52.154C1.7026 50.5654 6.35274 46.0221 6.35274 46.0221Z" fill="#F46F64"/>
<path d="M35.897 14.9013C35.897 14.9013 27.541 13.9164 20.4093 19.0015C13.4216 23.9846 9.70084 31.5511 10.9566 41.8016C10.9566 41.8016 9.66605 39.2649 9.93608 34.2601C10.2061 29.2552 13.791 24.4444 13.791 24.4444C13.791 24.4444 17.3163 18.7423 23.8236 16.0217C30.3308 13.301 35.897 14.9013 35.897 14.9013Z" fill="white"/>
<path d="M2.21442 64.1669C2.7039 64.1669 3.10071 63.7664 3.10071 63.2723C3.10071 62.7782 2.7039 62.3777 2.21442 62.3777C1.72493 62.3777 1.32812 62.7782 1.32812 63.2723C1.32812 63.7664 1.72493 64.1669 2.21442 64.1669Z" stroke="#2F3152" stroke-linecap="round" stroke-linejoin="round"/>
<path d="M16.9651 50.1374C16.5808 49.8397 16.2097 49.5253 15.8518 49.1926C9.68755 43.467 6.77355 33.5477 14.6193 23.3056C24.1532 10.8597 41.4136 11.6071 50.2914 23.3056C58.0908 33.5828 55.2232 43.467 49.0589 49.1926C48.537 49.6775 47.9837 50.1256 47.4072 50.5387" stroke="#2F3152" stroke-linecap="round" stroke-linejoin="round"/>
<path d="M42.6892 16.8193C42.6892 16.8193 46.0985 14.3478 48.8104 14.3478C51.5223 14.3478 50.2898 15.5919 49.3041 17.5835C48.3184 19.575 48.1445 20.8492 48.1445 20.8492" stroke="#2F3152" stroke-linecap="round" stroke-linejoin="round"/>
<path d="M50.4571 15.2926C50.4571 15.2926 50.5366 14.5953 49.0572 15.3428C47.5779 16.0902 45.6313 18.6754 45.6313 18.6754" stroke="#2F3152" stroke-linecap="round" stroke-linejoin="round"/>
<path d="M22.1008 16.8193C22.1008 16.8193 18.6914 14.3478 15.9796 14.3478C13.2677 14.3478 14.5002 15.5919 15.4859 17.5835C16.4716 19.575 16.6455 20.8492 16.6455 20.8492" stroke="#2F3152" stroke-linecap="round" stroke-linejoin="round"/>
<path d="M14.3328 15.2926C14.3328 15.2926 14.2533 14.5953 15.7326 15.3428C17.212 16.0902 19.1585 18.6754 19.1585 18.6754" stroke="#2F3152" stroke-linecap="round" stroke-linejoin="round"/>
<path d="M32.4446 34.7567C32.4446 34.7567 33.6771 34.5075 36.1438 36.0008C38.6105 37.494 40.3351 37.9923 40.3351 37.9923C40.3351 37.9923 44.0343 37.9923 45.2668 34.2584" stroke="#2F3152" stroke-linecap="round" stroke-linejoin="round"/>
<path d="M44.7732 34.0092C44.7732 34.0092 45.5137 34.0092 45.7589 34.7567" stroke="#2F3152" stroke-linecap="round" stroke-linejoin="round"/>
<path d="M19.6223 34.2584C20.8548 37.9924 24.5541 37.9924 24.5541 37.9924C24.5541 37.9924 26.2803 37.494 28.7453 36.0008C31.2121 34.5075 32.4446 34.7567 32.4446 34.7567V33.2634" stroke="#2F3152" stroke-linecap="round" stroke-linejoin="round"/>
<path d="M20.1144 34.0092C20.1144 34.0092 19.3738 34.0092 19.1287 34.7567" stroke="#2F3152" stroke-linecap="round" stroke-linejoin="round"/>
<path d="M28.9922 37.7432C28.9922 37.7432 29.4859 38.9873 31.2121 38.7381C32.9383 38.489 34.9113 38.7381 34.9113 38.7381" stroke="#2F3152" stroke-linecap="round" stroke-linejoin="round"/>
<path d="M36.8826 19.8225C36.8826 19.8225 40.335 20.0717 41.8143 23.5565" stroke="#2F3152" stroke-linecap="round" stroke-linejoin="round"/>
<path d="M35.897 26.2938C35.897 26.2938 38.6089 28.5345 42.3081 26.2938" stroke="#2F3152" stroke-linecap="round" stroke-linejoin="round"/>
<path d="M28.0065 19.8225C28.0065 19.8225 24.5541 20.0717 23.0747 23.5565" stroke="#2F3152" stroke-linecap="round" stroke-linejoin="round"/>
<path d="M28.9922 26.2938C28.9922 26.2938 26.2803 28.5345 22.5811 26.2938" stroke="#2F3152" stroke-linecap="round" stroke-linejoin="round"/>
<path d="M30.715 31.7702C31.4555 32.7651 31.9592 33.2634 32.4528 33.2634C32.9465 33.2634 33.6738 32.516 34.1674 31.7702C34.5982 31.1164 34.1674 30.7753 32.4528 30.7151C32.2209 30.7067 29.9745 30.7736 30.715 31.7702Z" stroke="#2F3152" stroke-linecap="round" stroke-linejoin="round"/>
<path d="M37.4626 33.3471C37.4626 33.3471 42.9063 33.1531 47.4057 37.8937" stroke="#2F3152" stroke-linecap="round" stroke-linejoin="round"/>
<path d="M37.2605 31.0863C37.2605 31.0863 41.7897 29.2051 48.2936 31.1749" stroke="#2F3152" stroke-linecap="round" stroke-linejoin="round"/>
<path d="M26.9081 33.3471C26.9081 33.3471 21.4645 33.1531 16.9651 37.8937" stroke="#2F3152" stroke-linecap="round" stroke-linejoin="round"/>
<path d="M27.1103 31.0863C27.1103 31.0863 22.5811 29.2051 16.0771 31.1749" stroke="#2F3152" stroke-linecap="round" stroke-linejoin="round"/>
<path d="M16.965 50.1374C16.965 50.1374 23.2337 54.5786 32.4445 54.6439C36.8744 54.6756 41.7962 53.5436 47.4055 50.5387C47.4055 50.5387 47.4171 50.5704 47.4337 50.629C47.6192 51.2878 47.3889 51.9918 46.8704 52.4333C45.4391 53.6523 40.8618 56.5067 32.2772 56.5802C23.4938 56.6555 18.9 53.3998 17.4488 52.1406C17.0512 51.7962 16.8209 51.2912 16.8391 50.7611C16.8458 50.5571 16.8806 50.3414 16.9634 50.139L16.965 50.1374Z" stroke="#2F3152" stroke-linecap="round" stroke-linejoin="round"/>
<path d="M12.1608 44.549C10.8278 46.278 9.63614 48.0232 8.58584 49.7845C4.07651 57.3444 6.84804 58.5133 10.5738 69.5195C13.7992 79.0476 14.4702 85.6142 11.6224 95.1941" stroke="#2F3152" stroke-linecap="round" stroke-linejoin="round"/>
<path d="M16.9551 50.1524C16.9551 50.1524 12.8334 51.7727 15.6099 78.5242" stroke="#2F3152" stroke-linecap="round" stroke-linejoin="round"/>
<path d="M9.86816 59.3561C12.4094 65.2555 16.8475 77.0961 15.61 85.4219C14.8314 90.6592 13.5011 94.5052 12.2835 97.1405" stroke="#2F3152" stroke-linecap="round" stroke-linejoin="round"/>
<path d="M-2.99225 63.58C-2.99225 63.58 -6.59872 72.2017 -3.56213 78.5242C-3.56213 78.5242 0.234856 81.5893 10.6749 80.2482" stroke="#2F3152" stroke-linecap="round" stroke-linejoin="round"/>
<path d="M7.67812 62.1921C6.07451 64.1084 1.75404 66.2621 1.75404 66.2621C1.75404 66.2621 0.0460578 63.9629 -2.42231 61.2807C-4.89068 58.5986 -5.64941 54.1924 -5.64941 54.1924C-5.64941 54.1924 -2.23346 54.1924 3.65087 48.4451C6.85313 45.3182 8.76156 42.8718 10.5706 40.8267" stroke="#2F3152" stroke-linecap="round" stroke-linejoin="round"/>
<path d="M47.4785 50.5504C47.4785 50.5504 50.6791 51.7309 48.0484 64.921C46.2476 73.9458 43.6252 90.1642 49.0788 97.6121" stroke="#2F3152" stroke-linecap="round" stroke-linejoin="round"/>
<path d="M53.8116 42.3166C55.4103 44.7045 57.0454 47.3097 57.9184 53.8078C58.2696 56.4164 58.702 58.3461 57.211 61.6904C56.0945 64.1953 54.857 66.9912 53.5681 70.0463" stroke="#2F3152" stroke-linecap="round" stroke-linejoin="round"/>
<path d="M52.1135 68.9443C53.2317 66.5548 54.2257 64.4194 55.0573 61.6887C56.3826 57.3411 57.3766 57.8427 57.3766 58.5116" stroke="#2F3152" stroke-linecap="round" stroke-linejoin="round"/>
<path d="M69.74 66.3692C69.2066 65.6501 68.5373 64.6836 67.8896 63.5783C67.8896 63.5783 65.6117 60.7038 68.6483 53.8061C71.236 47.9301 71.3436 41.218 64.3925 35.8068C61.8644 33.8387 58.9256 32.4575 55.7946 31.8187C55.334 31.725 54.8635 31.6448 54.3931 31.5896" stroke="#2F3152" stroke-linecap="round" stroke-linejoin="round"/>
<path d="M57.8372 60.0199C57.8488 61.0015 57.8736 62.1787 57.92 63.58C58.1105 69.5195 62.0963 71.2435 62.0963 71.2435C62.0963 71.2435 62.8451 71.0078 63.9567 70.6165" stroke="#2F3152" stroke-linecap="round" stroke-linejoin="round"/>
<path d="M68.4546 48.1726C69.7484 42.0691 64.6675 37.0793 62.0964 36.1881" stroke="#2F3152" stroke-linecap="round" stroke-linejoin="round"/>
<path d="M7.67798 55.0017C7.67798 55.0017 9.83159 49.818 12.8334 45.6426" stroke="#2F3152" stroke-linecap="round" stroke-linejoin="round"/>
<path d="M56.7141 54.8345C56.7141 54.8345 56.8698 48.6474 53.4009 43.4637" stroke="#2F3152" stroke-linecap="round" stroke-linejoin="round"/>
</g>
<rect x="1" y="1" width="62" height="62" rx="31" stroke="#EAF1FE" stroke-width="2"/>
<defs>
<clipPath id="clip0_33_9669">
<rect width="64" height="64" rx="32" fill="white"/>
</clipPath>
</defs>
</svg>
