<svg width="64" height="64" viewBox="0 0 64 64" fill="none" xmlns="http://www.w3.org/2000/svg">
<g clip-path="url(#clip0_33_9166)">
<rect width="64" height="64" rx="32" fill="#B1CCFF"/>
<path d="M19.8213 91.5112C19.8213 91.5112 19.9933 89.728 19.3778 85.4374C18.7623 81.1468 16.8976 69.6147 16.8976 69.6147C16.8976 69.6147 15.9924 64.4823 15.9381 58.2275C15.8838 51.9726 17.5584 44.9031 17.5584 44.9031L16.6532 44.1608L16.0739 44.5682L14.5984 43.4457L13.2949 41.0108H12.4893L11.8647 38.2409L11.2583 38.5125L11.5932 35.4077L12.4078 32.0223L10.4526 32.3844L12.2992 30.23L13.476 28.836L12.6341 28.7274L15.6032 26.0662C15.6032 26.0662 10.2082 18.0733 12.4078 15.7832C14.6074 13.4931 22.2653 16.8061 22.2653 16.8061L24.0304 17.4759L28.3301 14.9776L27.8503 16.3444L29.0542 15.7832V16.9962L32.4668 14.6336L31.797 16.3444C31.797 16.3444 34.4944 16.272 36.5854 17.6389L38.3686 18.2453C38.3686 18.2453 46.5877 13.5655 49.955 15.403C53.3223 17.2406 47.1218 26.0299 47.1218 26.0299L49.3395 27.5145L50.1904 28.7184L48.9503 28.7998C48.9503 28.7998 50.7516 30.5287 51.4576 31.2076C52.1637 31.8865 52.2089 32.321 52.2089 32.321L50.299 31.9951L51.1589 34.059V36.2676L51.5572 38.5125L50.9507 38.2409C50.9507 38.2409 50.8874 40.6487 50.299 41.1104C49.7106 41.572 47.1761 43.9527 47.1761 43.9527L45.411 44.9031C45.411 44.9031 46.3343 48.2885 48.3257 51.0222C50.3171 53.7558 52.7068 56.0822 54.7887 60.3728C56.8706 64.6633 58.0383 65.8763 58.6539 69.9858C59.2694 74.0954 58.672 83.3102 58.672 83.3102C58.672 83.3102 60.066 84.3874 61.469 86.1615C62.872 87.9357 63.4061 91.5022 63.4061 91.5022H19.8213V91.5112Z" fill="#EFAE20"/>
<path d="M17.0243 44.5863C17.0243 44.5863 15.1325 44.0975 14.2906 42.8664C13.4488 41.6354 12.3264 40.3953 12.3264 40.3953L11.8647 38.2409C11.8647 38.2409 11.4212 37.5982 11.6203 36.684C11.8195 35.7698 11.5932 35.4077 11.5932 35.4077L12.4078 32.0223L10.4526 32.3844L13.4669 28.836L12.9872 28.302L15.5941 26.0571L17.0152 25.5411V24.826L20.5636 25.0885L20.0295 23.6855L25.0171 25.1429V23.6855L28.7465 25.5321V24.5635L32.4668 25.6317L33.7431 25.0433L33.6254 25.6769L38.079 23.6946L37.9975 24.8351L42.8855 23.6946L42.4148 25.1066L46.2075 25.1519L45.8998 25.6045C45.8998 25.6045 47.9274 26.0843 48.9593 27.0347C49.9912 27.9851 50.1904 28.7274 50.1904 28.7274L48.9503 28.8089L51.7563 31.6059L52.1999 32.33L50.2899 32.0042C50.2899 32.0042 50.8421 34.5387 51.1499 36.2676L51.5481 38.5125L50.5977 38.3948C50.5977 38.3948 51.0412 40.3953 49.8192 41.5086C48.5972 42.622 46.6782 44.2152 46.6782 44.2152L45.411 44.9031C45.411 44.9031 41.3919 46.9217 37.3095 47.6639C33.2272 48.4062 24.0304 47.3833 24.0304 47.3833L17.0243 44.5863Z" fill="#FDCE0E"/>
<path d="M24.7094 39.3634C27.8339 39.3634 30.3668 36.8304 30.3668 33.7059C30.3668 30.5814 27.8339 28.0485 24.7094 28.0485C21.5849 28.0485 19.052 30.5814 19.052 33.7059C19.052 36.8304 21.5849 39.3634 24.7094 39.3634Z" fill="white"/>
<path d="M38.2147 39.5444C41.3892 39.5444 43.9627 36.9709 43.9627 33.7964C43.9627 30.6219 41.3892 28.0485 38.2147 28.0485C35.0402 28.0485 32.4668 30.6219 32.4668 33.7964C32.4668 36.9709 35.0402 39.5444 38.2147 39.5444Z" fill="white"/>
<path d="M29.1267 39.9065L31.7155 42.5044L34.3134 39.9065H29.1267Z" fill="#2F3152"/>
<path d="M17.2235 23.3053C17.2235 23.3053 16.0739 24.6993 15.6033 26.048C15.6033 26.048 13.992 24.2467 13.0416 21.5493C12.0911 18.8518 11.9101 16.1634 12.4079 15.7832C12.9058 15.403 16.1916 17.0505 16.1916 17.0505L20.4279 19.8656L18.1559 20.3544L18.8167 21.1057L17.3503 22.2644L17.2235 23.2963V23.3053Z" fill="#F4A67F"/>
<path d="M47.3662 25.8942L45.764 23.3958L45.1394 21.7212L43.9627 20.8975L44.7502 20.4268L42.4148 19.938C42.4148 19.938 48.036 15.0048 50.1813 15.8556C52.3266 16.7065 47.3662 25.9123 47.3662 25.9123V25.8942Z" fill="#F4A67F"/>
<path d="M20.5273 46.3695C20.5273 46.3695 23.8403 49.5196 32.0323 49.9631C40.2242 50.4066 44.0803 45.8264 44.0803 45.8264C44.0803 45.8264 37.2552 47.9355 31.5163 47.9264C25.7774 47.9174 20.5273 46.3695 20.5273 46.3695Z" fill="#306EB3"/>
<path d="M31.1453 40.8388C31.6752 40.8388 32.1048 40.6645 32.1048 40.4496C32.1048 40.2346 31.6752 40.0603 31.1453 40.0603C30.6154 40.0603 30.1858 40.2346 30.1858 40.4496C30.1858 40.6645 30.6154 40.8388 31.1453 40.8388Z" fill="white"/>
<path opacity="0.2" d="M35.7886 17.5936C35.7886 17.5936 38.2507 19.9833 37.9972 23.8756L37.8434 25.1972L40.9029 24.0838L42.8852 23.6765L42.3421 25.3239C42.3421 25.3239 45.8362 27.2972 46.325 33.3801C46.8138 39.4629 42.668 45.9984 37.9972 47.51L38.0787 48.9855C38.0787 48.9855 43.2654 56.0098 44.8767 61.3504C46.4879 66.691 43.8538 76.5666 42.4145 83.4731C40.9753 90.3797 41.0749 91.5293 41.0749 91.5293H63.4058C63.4058 91.5293 63.605 89.2935 62.4826 87.5012C61.3601 85.7089 58.6627 83.3011 58.6627 83.3011L58.9795 72.457L58.029 67.3608L53.6479 58.2275L48.3073 51.0041L46.3069 47.7816L44.9491 45.1022L46.2978 44.1427L48.1263 42.975L50.2082 40.8207L50.9414 38.2228C50.9414 38.2228 51.4302 37.7793 51.2039 36.5392L50.9776 35.2991L50.7151 31.968L52.1996 32.3029L48.9409 28.7817L50.1811 28.7002L47.7189 26.3196L46.4155 25.8761C46.4155 25.8761 47.7823 26.0571 48.9409 23.3777C50.0996 20.6984 50.6427 16.9962 50.2897 15.7742C49.9367 14.5522 45.8814 15.1405 45.8814 15.1405L41.2106 16.7518L38.2145 18.2363L35.7886 17.5845V17.5936Z" fill="#2F3152"/>
<path opacity="0.2" d="M28.0222 66.5371C28.0222 66.5371 24.3561 70.7462 25.8226 80.3683C27.289 89.9905 27.2346 91.5022 27.2346 91.5022H34.7658C34.7658 91.5022 35.6257 89.8004 36.3408 85.1296C37.0559 80.4589 38.3685 70.2483 38.3685 70.2483L35.3089 64.9892C35.3089 64.9892 31.127 63.4142 28.0222 66.528V66.5371Z" fill="#2F3152"/>
<path opacity="0.2" d="M28.0221 66.5371C28.0221 66.5371 26.5557 70.2121 28.0221 79.8343C29.4885 89.4564 30.2941 91.5112 30.2941 91.5112H34.7657C34.7657 91.5112 35.6257 89.8094 36.3408 85.1387C37.0559 80.4679 38.3684 70.2574 38.3684 70.2574L35.3089 64.9983C35.3089 64.9983 31.1269 63.4232 28.0221 66.5371Z" fill="#2F3152"/>
<path d="M17.5583 44.9031C16.6531 49.067 15.6574 55.186 16.0104 60.8706C16.6259 70.7462 18.6174 79.2731 19.3777 85.0391C19.8032 88.2616 19.948 90.253 19.8122 91.5474" stroke="#2F3152" stroke-linecap="round" stroke-linejoin="round"/>
<path d="M27.262 62.0745L28.6469 65.4599L29.0271 64.2741C29.0271 64.2741 29.715 67.5418 31.2448 68.7186" stroke="#2F3152" stroke-linecap="round" stroke-linejoin="round"/>
<path d="M45.4109 45.1113C45.4109 45.1113 45.8725 48.4605 49.4661 52.3709C53.0597 56.2813 56.3546 62.9344 58.0383 67.3789C59.7219 71.8234 58.6538 83.4912 58.6538 83.4912C58.6538 83.4912 57.8844 84.7494 58.1921 86.4331C58.4999 88.1167 57.7757 90.9228 56.3184 91.5384" stroke="#2F3152" stroke-linecap="round" stroke-linejoin="round"/>
<path d="M50.6972 62.4728C50.6972 62.4728 52.0007 65.4599 50.2356 70.9725C48.4705 76.4851 47.0222 80.9386 46.1804 85.8357C45.8002 88.0715 45.6553 89.9995 45.6191 91.5474" stroke="#2F3152" stroke-linecap="round" stroke-linejoin="round"/>
<path d="M45.2844 45.401C45.2844 45.401 38.7399 50.7506 30.394 49.9088C22.6366 49.1303 18.3188 45.401 18.3188 45.401" stroke="#2F3152" stroke-linecap="round" stroke-linejoin="round"/>
<path d="M24.5555 39.5353C27.725 39.5353 30.2944 36.9659 30.2944 33.7964C30.2944 30.6269 27.725 28.0576 24.5555 28.0576C21.386 28.0576 18.8167 30.6269 18.8167 33.7964C18.8167 36.9659 21.386 39.5353 24.5555 39.5353Z" stroke="#2F3152" stroke-linecap="round" stroke-linejoin="round"/>
<path d="M25.2886 36.4034C27.2033 36.4034 28.7555 34.8512 28.7555 32.9365C28.7555 31.0218 27.2033 29.4697 25.2886 29.4697C23.3739 29.4697 21.8218 31.0218 21.8218 32.9365C21.8218 34.8512 23.3739 36.4034 25.2886 36.4034Z" fill="#2F3152"/>
<path d="M25.8227 34.8103C26.6026 34.8103 27.2348 34.178 27.2348 33.3982C27.2348 32.6183 26.6026 31.9861 25.8227 31.9861C25.0429 31.9861 24.4106 32.6183 24.4106 33.3982C24.4106 34.178 25.0429 34.8103 25.8227 34.8103Z" fill="white"/>
<path d="M24.3383 31.8956C24.7183 31.8956 25.0263 31.5876 25.0263 31.2076C25.0263 30.8277 24.7183 30.5197 24.3383 30.5197C23.9584 30.5197 23.6504 30.8277 23.6504 31.2076C23.6504 31.5876 23.9584 31.8956 24.3383 31.8956Z" fill="white"/>
<path d="M38.2147 39.2457C41.3842 39.2457 43.9536 36.6763 43.9536 33.5068C43.9536 30.3373 41.3842 27.7679 38.2147 27.7679C35.0452 27.7679 32.4758 30.3373 32.4758 33.5068C32.4758 36.6763 35.0452 39.2457 38.2147 39.2457Z" stroke="#2F3152" stroke-linecap="round" stroke-linejoin="round"/>
<path d="M38.9478 36.1047C40.8625 36.1047 42.4147 34.5525 42.4147 32.6378C42.4147 30.7231 40.8625 29.1709 38.9478 29.1709C37.0331 29.1709 35.481 30.7231 35.481 32.6378C35.481 34.5525 37.0331 36.1047 38.9478 36.1047Z" fill="#2F3152"/>
<path d="M39.491 34.5115C40.2708 34.5115 40.903 33.8793 40.903 33.0995C40.903 32.3196 40.2708 31.6874 39.491 31.6874C38.7111 31.6874 38.0789 32.3196 38.0789 33.0995C38.0789 33.8793 38.7111 34.5115 39.491 34.5115Z" fill="white"/>
<path d="M37.9975 31.5968C38.3775 31.5968 38.6855 31.2888 38.6855 30.9089C38.6855 30.529 38.3775 30.221 37.9975 30.221C37.6176 30.221 37.3096 30.529 37.3096 30.9089C37.3096 31.2888 37.6176 31.5968 37.9975 31.5968Z" fill="white"/>
<path d="M33.5712 40.9203C33.1549 41.3638 32.1863 42.2328 31.7428 42.2237C31.1544 42.2237 29.4255 40.6668 29.344 39.9879C29.2625 39.309 34.2139 39.5987 34.1868 39.9517C34.1777 40.1147 33.8971 40.5491 33.5712 40.9112V40.9203Z" stroke="#2F3152" stroke-linecap="round" stroke-linejoin="round"/>
<path d="M31.7427 42.2237L31.634 43.6358" stroke="#2F3152" stroke-linecap="round" stroke-linejoin="round"/>
<path d="M29.1267 42.9298C29.1267 42.9298 31.091 43.9526 31.6341 43.9526C32.1772 43.9526 34.3134 43.0384 34.3134 43.0384" stroke="#2F3152" stroke-linecap="round" stroke-linejoin="round"/>
<path d="M20.5725 20.1281C20.5725 20.1281 18.9885 20.0376 17.8479 20.463C17.8479 20.463 18.6716 20.9156 18.9885 21.3049C18.9885 21.3049 17.2505 21.8751 16.8613 22.2915C16.8613 22.2915 17.5311 22.2915 17.7846 22.6174C17.7846 22.6174 16.8975 22.9795 16.6531 23.3053C16.6531 23.3053 17.1328 23.3325 17.3139 23.3958" stroke="#2F3152" stroke-linecap="round" stroke-linejoin="round"/>
<path d="M15.5942 26.048C15.4765 26.2381 15.3589 26.4282 15.2502 26.6274" stroke="#2F3152" stroke-linecap="round" stroke-linejoin="round"/>
<path d="M24.0305 17.6389C24.0305 17.6389 18.4364 14.5703 13.3312 15.2492C12.607 15.3487 12.073 15.9914 12.1001 16.7246C12.1906 18.7341 12.7428 22.8256 15.5941 26.048L17.314 25.7222L16.4993 25.2062C18.4002 24.7265 20.6541 25.3329 20.6541 25.3329C20.4821 24.6812 19.9209 23.8213 19.9209 23.8213C22.6003 23.8213 25.1529 25.2062 25.1529 25.2062L24.6279 23.8213C26.1215 23.9118 29.0724 25.7222 29.0724 25.7222L28.665 24.5454C28.665 24.5454 31.2991 24.9618 32.3311 25.7222C32.3311 25.7222 33.2815 25.0795 33.8156 24.9528L33.6074 25.7222C33.6074 25.7222 35.9518 23.9027 38.0156 23.8213L37.8527 25.2062C37.8527 25.2062 40.3963 23.8213 43.0847 23.8213C43.0847 23.8213 42.5325 24.6903 42.3515 25.3329C42.3515 25.3329 44.6054 24.7265 46.5063 25.2062L45.6916 25.7222L47.1218 26.048" stroke="#2F3152" stroke-linecap="round" stroke-linejoin="round"/>
<path d="M20.5725 20.1281C20.5725 20.1281 18.3186 16.8604 12.4077 15.7832" stroke="#2F3152" stroke-linecap="round" stroke-linejoin="round"/>
<path d="M38.2148 18.2453C38.2148 18.2453 44.2615 14.5612 49.3668 15.2492C50.0909 15.3487 50.625 15.9914 50.5978 16.7246C50.5073 18.7341 49.9551 22.8256 47.1038 26.048" stroke="#2F3152" stroke-linecap="round" stroke-linejoin="round"/>
<path d="M42.1252 20.1281C42.1252 20.1281 44.3792 16.8604 50.29 15.7832" stroke="#2F3152" stroke-linecap="round" stroke-linejoin="round"/>
<path d="M15.2501 26.6274C15.2501 26.6274 13.3945 27.6231 12.5798 28.7817C12.5798 28.7817 13.4669 28.8903 14.1367 28.7636C14.1367 28.7636 11.3669 30.5106 10.4526 32.6378C10.4526 32.6378 12.082 31.8865 12.9419 31.977C12.9419 31.977 11.7199 33.0814 11.3669 33.7965C11.3669 33.7965 12.1091 33.3982 12.5708 33.4977C12.5708 33.4977 11.213 34.7831 11.1134 35.6611C11.1134 35.6611 11.8195 35.1723 12.2721 35.2719C12.2721 35.2719 11.1134 36.5754 11.2583 39.2457C11.2583 39.2457 11.7108 38.1595 12.2721 37.8788C12.2721 37.8788 11.8557 40.0784 12.8514 41.8526C12.8514 41.8526 12.788 40.6125 13.1863 40.35C13.1863 40.35 13.3402 41.6625 13.6389 42.2147L13.8742 41.5267C13.8742 41.5267 14.2997 43.3914 15.0057 43.9436C15.0057 43.9436 14.8066 43.5815 15.0329 42.9207C15.0329 42.9207 15.6665 44.0794 16.1734 44.7402L16.4812 44.1699" stroke="#2F3152" stroke-linecap="round" stroke-linejoin="round"/>
<path d="M46.3071 44.1608C42.8041 46.7678 37.4182 48.1437 31.3806 48.1437C25.343 48.1437 19.9843 46.7768 16.4812 44.188" stroke="#2F3152" stroke-linecap="round" stroke-linejoin="round"/>
<path d="M24.0305 17.6389C24.0305 17.6389 26.2844 15.4392 28.7556 14.9776C28.7556 14.9776 27.8414 16.0457 27.7327 16.7156C27.7327 16.7156 28.475 15.8647 29.1358 15.7651C29.1358 15.7651 28.9366 16.7427 29.1358 17.3492C29.1358 17.3492 30.3125 15.1858 33.0552 14.4526C33.0552 14.4526 31.3987 15.566 31.3987 16.7156C31.3987 16.7156 32.4307 15.8647 33.0552 15.7651C33.0552 15.7651 32.657 16.0095 32.8289 16.7789C32.8289 16.7789 33.5259 15.8104 34.3225 15.7651C34.3225 15.7651 33.8065 16.9781 33.9785 17.3492C33.9785 17.3492 35.1191 16.5617 35.9247 16.7156C35.9247 16.7156 35.4721 17.1501 35.4992 17.6117C35.4992 17.6117 36.5583 17.5031 37.5269 17.8742L36.5583 18.2272C36.5583 18.2272 37.2282 18.0552 38.2329 18.2544" stroke="#2F3152" stroke-linecap="round" stroke-linejoin="round"/>
<path d="M42.1252 20.1281C42.1252 20.1281 43.7908 20.0648 44.9494 20.4178C44.9494 20.4178 44.1529 20.9156 43.8632 21.323C43.8632 21.323 45.6283 21.7846 46.0447 22.1738C46.0447 22.1738 45.3749 22.2191 45.1486 22.5631C45.1486 22.5631 46.0628 22.8618 46.3163 23.1786C46.3163 23.1786 45.8365 23.242 45.6645 23.3144" stroke="#2F3152" stroke-linecap="round" stroke-linejoin="round"/>
<path d="M47.1036 26.048C47.1036 26.048 48.8959 26.6274 50.2356 28.7727C50.2356 28.7727 49.3485 28.8813 48.6787 28.7546C48.6787 28.7546 51.4485 30.5016 52.3628 32.6288C52.3628 32.6288 50.7334 31.8775 49.8735 31.968C49.8735 31.968 51.0955 33.0723 51.4485 33.7874C51.4485 33.7874 50.7063 33.3891 50.2446 33.4887C50.2446 33.4887 51.6024 34.7741 51.702 35.6521C51.702 35.6521 50.9959 35.1633 50.5434 35.2629C50.5434 35.2629 51.702 36.5663 51.5572 39.2366C51.5572 39.2366 51.1046 38.1504 50.5434 37.8698C50.5434 37.8698 50.9597 40.0694 49.964 41.8436C49.964 41.8436 50.0274 40.6035 49.6291 40.341C49.6291 40.341 49.4752 41.6535 49.1765 42.2056L48.9412 41.5177C48.9412 41.5177 48.5157 43.3824 47.8097 43.9345C47.8097 43.9345 48.0088 43.5725 47.7825 42.9117C47.7825 42.9117 47.1489 44.0703 46.642 44.7311L46.3342 44.1608" stroke="#2F3152" stroke-linecap="round" stroke-linejoin="round"/>
<path d="M26.8003 41.6806C26.8003 41.6806 17.4044 38.2409 10.8328 42.622" stroke="#2F3152" stroke-linecap="round" stroke-linejoin="round"/>
<path d="M26.6554 43.0475C26.6554 43.0475 17.5764 42.2147 11.4482 46.8764" stroke="#2F3152" stroke-linecap="round" stroke-linejoin="round"/>
<path d="M36.5945 41.6806C36.5945 41.6806 45.9903 38.2409 52.562 42.622" stroke="#2F3152" stroke-linecap="round" stroke-linejoin="round"/>
<path d="M36.7302 43.0475C36.7302 43.0475 45.8093 42.2147 51.9374 46.8764" stroke="#2F3152" stroke-linecap="round" stroke-linejoin="round"/>
</g>
<rect x="1" y="1" width="62" height="62" rx="31" stroke="#EAF1FE" stroke-width="2"/>
<defs>
<clipPath id="clip0_33_9166">
<rect width="64" height="64" rx="32" fill="white"/>
</clipPath>
</defs>
</svg>
