<svg width="64" height="64" viewBox="0 0 64 64" fill="none" xmlns="http://www.w3.org/2000/svg">
<g clip-path="url(#clip0_33_9963)">
<rect width="64" height="64" rx="32" fill="#EED779"/>
<path d="M38.5176 14.8304C38.5176 14.8304 39.7112 14.2115 42.4378 14.2153C45.1643 14.2191 49.6298 14.8078 51.5785 15.6305C53.5271 16.4532 51.5785 17.0909 51.5785 17.0909L48.1578 19.2684L46.6783 20.5439L38.5214 14.8267L38.5176 14.8304Z" fill="#93B7D1"/>
<path d="M46.6783 20.5477C46.6783 20.5477 50.3162 17.0004 53.5309 16.4569C53.5309 16.4569 49.4239 15.9324 47.1359 16.7136C44.8478 17.4947 43.4826 17.5325 44.9012 18.5023C46.3198 19.4722 46.6783 20.5477 46.6783 20.5477Z" fill="#FFC2E8"/>
<path d="M13.0327 82.717C13.0327 82.717 15.889 69.3616 22.3374 60.5007C28.782 51.6399 38.9028 46.9378 54.3547 42.9149C61.2531 41.1186 66.7177 40.4469 66.7177 40.4469V82.717H13.0327Z" fill="#EF80A5"/>
<path d="M21.2201 19.2684C21.2201 19.2684 17.1969 18.4986 12.4225 22.0535C7.65199 25.6121 7.17531 31.1181 7.33166 31.3898C7.48801 31.6615 8.92185 31.3898 8.92185 31.3898C8.92185 31.3898 11.2938 30.2501 12.9297 30.0539C14.5657 29.8576 17.2541 30.4916 17.2541 30.4916C17.2541 30.4916 14.2987 33.7371 12.7162 38.5637C11.1336 43.3904 11.6599 46.0811 11.6599 46.0811L15.4656 42.9036L14.8326 46.934L12.209 50.7682L13.0594 50.4738L11.6408 52.8475L12.3196 52.5758L9.69215 57.0779H10.615L7.81215 62.731L9.39852 62.1197L8.67016 65.101L8.5672 67.0747L9.39852 66.2822L9.06676 69.6597L9.39852 71.9466L10.3328 71.6824L10.4396 74.7618L10.9811 74.192C10.9811 74.192 11.5111 75.6109 12.7429 75.9846C13.9746 76.3582 15.0996 76.0034 15.0996 76.0034L20.568 63.4367L23.0772 59.1459L25.2546 57.0817C25.2546 57.0817 26.0097 59.0252 27.9545 59.0667C29.8993 59.1082 29.9909 56.6213 29.9909 56.6213C29.9909 56.6213 31.1883 56.9345 31.9738 55.6325C32.7594 54.3306 32.8166 54.0627 32.8166 54.0627C32.8166 54.0627 34.4564 53.8023 34.9674 52.3418C35.4783 50.8814 35.1885 49.8172 35.1885 49.8172L40.2642 47.3378C40.2642 47.3378 41.5569 48.451 42.8344 48.5228C44.1119 48.5945 44.8974 46.6736 44.8974 46.6736L45.0805 45.7C45.0805 45.7 45.3017 46.8812 46.93 47.0208C48.5583 47.1604 48.8824 45.7 48.8824 45.7C48.8824 45.7 49.26 46.1792 50.4955 46.2094C51.731 46.2396 51.8378 44.1452 51.8378 44.1452L52.9933 44.0093L54.3509 42.5489L53.714 41.2167L52.7492 39.96L54.0458 40.3752C54.0458 40.3752 53.9733 39.0241 53.5233 38.16C53.0734 37.2958 52.5509 36.4429 52.5509 36.4429L53.7331 36.7712L53.531 35.5825L52.3717 34.205L55.8495 34.4616C55.8495 34.4616 55.3042 32.2351 54.3242 31.503C53.3441 30.7709 52.0018 29.869 52.0018 29.869L51.0828 27.0273L48.7757 22.8233L44.0471 18.0721L38.5291 14.9437L40.1078 12.0907C40.1078 12.0907 37.9914 12.2039 35.9169 12.7247C33.8424 13.2455 33.5869 13.8077 33.5869 13.8077C33.5869 13.8077 34.0636 11.434 35.608 10.6982C35.608 10.6982 32.1264 11.2227 26.8906 14.5738C21.6548 17.9249 21.2277 19.276 21.2277 19.276L21.2201 19.2684Z" fill="#93B7D1"/>
<path d="M24.9609 26.4575C24.9609 26.4575 23.4737 30.6652 25.6168 34.7183C27.7599 38.7713 32.2674 37.175 32.2674 37.175C32.2674 37.175 33.9643 36.1598 34.6698 35.1824C35.3753 34.205 35.6003 33.4616 35.6003 33.4616C35.6003 33.4616 37.7777 35.8013 39.795 35.6391C41.8123 35.4768 43.6847 33.3786 44.5961 30.8199C45.5075 28.2613 44.3787 25.5518 44.3787 25.5518L35.9664 27.7707L24.9647 26.4537L24.9609 26.4575Z" fill="white"/>
<path d="M34.3687 37.258L36.0199 39.3562L36.9846 39.9449L37.9876 38.7713L38.9257 37.258L38.8608 36.707L38.0257 36.3108L36.1915 36.5787L34.708 36.7372L34.3687 37.258Z" fill="#FFC2E8"/>
<path d="M18.3562 27.2462C18.3562 27.2462 17.2694 29.5972 17.2579 30.4916C17.2579 30.4916 14.3369 29.3935 11.9268 30.2577C9.51674 31.1218 7.77021 31.9068 7.38505 31.4955C6.9999 31.0841 8.89897 28.9746 8.89897 28.9746L12.1137 26.6046L16.1826 25.0574L18.7414 24.6045L16.1826 26.7782L17.6431 26.3367L16.7508 27.7783L18.36 27.2499L18.3562 27.2462Z" fill="#FFC2E8"/>
<g style="mix-blend-mode:multiply" opacity="0.2">
<path d="M20.1751 50.5945L19.7366 46.934L18.1769 48.2699L16.4952 51.3719L16.3122 49.8813C16.3122 49.8813 11.1107 59.7497 10.9543 67.2822L13.2615 60.1762C15.3092 54.591 20.179 50.5983 20.179 50.5983L20.1751 50.5945Z" fill="#2F3152"/>
</g>
<g style="mix-blend-mode:multiply" opacity="0.2">
<path d="M34.8491 50.0813C34.8147 50.4549 34.6927 50.7946 34.3686 50.8474C33.6021 50.9719 32.4657 48.9567 31.3293 49.0133C31.3293 49.0133 33.2665 52.2588 31.9776 53.1192C30.6886 53.9796 29.72 51.3455 27.7523 51.4323C27.7523 51.4323 30.7916 54.0211 29.0946 55.625C27.3977 57.2289 26.9324 54.4061 24.7474 54.04C22.5623 53.6702 21.1628 52.7909 17.7727 56.1118C14.2186 59.712 12.064 63.3122 12.064 63.3122C11.9839 62.6442 11.595 65.6595 11.6064 64.9613L9.58911 71.8522L10.4166 75.1845L11.1946 74.1807L12.3881 75.8147C13.5817 77.4488 15.0995 75.9921 15.0995 75.9921C15.0995 75.9921 19.8014 64.9726 20.9454 62.7499C22.0894 60.5271 25.1668 57.2289 25.1668 57.2289C25.1668 57.2289 25.6016 58.8252 27.371 58.9799C29.1404 59.1346 29.9946 56.61 29.9946 56.61C29.9946 56.61 30.8793 56.9005 31.5772 56.4854C32.275 56.0703 32.8165 54.0551 32.8165 54.0551C32.8165 54.0551 33.8652 53.7985 34.7041 52.9192C35.3067 52.289 35.0435 50.8474 34.8491 50.0775V50.0813Z" fill="#2F3152"/>
</g>
<g style="mix-blend-mode:multiply" opacity="0.2">
<path d="M42.8382 40.4431C42.8382 40.4431 43.742 41.6733 43.4178 44.3263C43.0937 46.9793 41.4539 47.2774 40.104 46.0207C40.104 46.0207 41.0345 48.7001 42.842 48.5152C44.6496 48.3303 44.9585 46.2396 44.9585 46.2396C44.9585 46.2396 45.9385 40.477 42.842 40.4431H42.8382Z" fill="#2F3152"/>
</g>
<g style="mix-blend-mode:multiply" opacity="0.2">
<path d="M32.9119 46.6321C32.9119 46.6321 38.3574 45.6471 39.795 44.1338L40.5844 47.5718L34.8491 50.0775C34.8491 50.0775 35.5088 48.6775 32.9119 46.6283V46.6321Z" fill="#2F3152"/>
</g>
<g style="mix-blend-mode:multiply" opacity="0.2">
<path d="M46.6782 38.9789C46.6782 38.9789 48.2722 39.1525 48.2265 41.8054C48.1807 44.4584 46.6249 45.7868 45.4465 44.3263L44.9546 46.2396C44.9546 46.2396 45.4465 47.0472 46.9376 47.0132C48.4286 46.9793 48.8976 45.9943 48.8976 45.9943L49.3209 42.13C49.3209 42.13 49.34 40.2506 48.4515 39.2883C47.563 38.326 45.6143 38.5637 45.6143 38.5637L46.6821 38.9789H46.6782Z" fill="#2F3152"/>
</g>
<g style="mix-blend-mode:multiply" opacity="0.2">
<path d="M48.4438 39.2883L49.3133 42.13L48.89 45.9943C48.89 45.9943 50.1141 46.7604 50.7776 46.1717C51.4412 45.583 51.834 44.1338 51.834 44.1338L52.9894 43.998L54.3165 42.5753L52.7339 39.9487L51.2391 39.8657C51.2391 39.8657 51.1399 39.0921 50.1103 38.9826C49.0807 38.8732 48.4438 39.2921 48.4438 39.2921V39.2883Z" fill="#2F3152"/>
</g>
<g style="mix-blend-mode:multiply" opacity="0.2">
<path d="M55.8495 34.4541L54.6978 32.2313L53.5309 30.6879L52.3717 30.0048L50.4955 25.9178L47.7422 21.778L46.6821 20.5439C46.6821 20.5439 49.443 18.2042 50.5107 17.6457C51.5785 17.0872 54.5148 17.1815 52.4479 15.9701C50.3811 14.7625 45.9423 14.2115 45.9423 14.2115H42.4416L38.529 14.9323L40.1078 12.0794L36.6528 12.6379L34.3724 13.5021L33.7852 13.4115L34.0445 12.902C34.2885 12.502 34.6928 11.9284 35.2648 11.4001L36.7558 10.4566C36.7558 10.4566 36.4126 10.6227 35.852 10.917C35.9626 10.8378 36.077 10.7623 36.1991 10.6906C36.1991 10.6906 29.0261 13.0568 27.3787 17.6495L27.4321 17.6193C27.9507 17.3211 32.2751 15.0757 39.2269 18.4155C46.6439 21.9818 49.1036 28.5179 50.1103 31.7747L51.1209 35.0315H50.118C50.118 35.0315 51.2086 37.8165 51.3878 38.9751C51.567 40.1336 54.0496 40.3563 54.0496 40.3563L53.2449 37.4807L52.467 36.307L54.0419 36.8844L53.5348 35.5674L52.3755 34.1899L54.3241 34.0277L55.8495 34.4465V34.4541Z" fill="#2F3152"/>
</g>
<g style="mix-blend-mode:multiply" opacity="0.2">
<path d="M36.6492 36.7599C36.8894 36.7901 37.7589 37.0165 37.572 37.4844C37.3852 37.9524 37.2364 39.2996 36.6492 39.3034C36.0619 39.3072 36.6149 40.0317 37.1258 39.9449C37.6368 39.8581 38.3919 38.3562 38.3919 38.3562C38.3919 38.3562 39.0821 36.9561 38.8609 36.707C38.6398 36.458 38.0296 36.3108 38.0296 36.3108L36.653 36.7599H36.6492Z" fill="#2F3152"/>
</g>
<g style="mix-blend-mode:multiply" opacity="0.2">
<path d="M35.6003 50.353C35.6003 50.353 35.5126 53.6136 34.3686 54.5042C33.2245 55.3948 33.522 54.7608 33.522 54.7608C33.522 54.7608 32.8508 57.9195 30.3416 57.6855C30.3416 57.6855 29.7277 60.0328 27.7104 60.0932C25.6931 60.1535 25.5177 59.5044 25.5177 59.5044C25.5177 59.5044 18.848 64.1764 15.1033 75.9921C15.1033 75.9921 19.5192 65.467 21.2428 62.2782C22.9665 59.0893 25.1668 57.2289 25.1668 57.2289C25.1668 57.2289 26.8905 59.9988 28.1909 59.0478C29.4912 58.0968 29.9946 56.6137 29.9946 56.6137C29.9946 56.6137 31.0852 56.9081 31.9776 55.8892C32.8699 54.8702 32.8203 54.0589 32.8203 54.0589C32.8203 54.0589 33.911 54.3268 34.708 52.923C35.505 51.5191 35.6041 50.3568 35.6041 50.3568L35.6003 50.353Z" fill="#2F3152"/>
</g>
<g style="mix-blend-mode:multiply" opacity="0.2">
<path d="M40.5846 47.5718C40.5846 47.5718 41.7743 49.6171 43.4179 48.9643C45.0615 48.3114 45.1378 46.934 45.1378 46.934C45.1378 46.934 45.7136 48.1039 47.136 47.817C48.5584 47.5302 48.894 45.9943 48.894 45.9943C48.894 45.9943 49.424 46.8774 50.7816 46.7302C52.1392 46.583 52.9934 43.998 52.9934 43.998L51.8379 44.1338C51.8379 44.1338 51.5443 46.017 50.3697 46.2396C49.1952 46.4623 48.4173 46.3943 48.4173 46.3943C48.4173 46.3943 47.6965 47.0774 46.9339 47.0132C46.1712 46.9491 44.9509 46.2396 44.9509 46.2396C44.9509 46.2396 45.0195 48.4171 42.598 48.3907C40.1765 48.3642 40.5807 47.5718 40.5807 47.5718H40.5846Z" fill="#2F3152"/>
</g>
<path d="M35.8483 27.7745C36.0694 28.5481 36.1915 29.3821 36.1915 30.2501C36.1915 34.2994 33.5755 37.5826 30.3493 37.5826C27.1232 37.5826 24.2746 34.2918 24.5072 30.2501C24.6064 28.5368 24.9191 27.45 25.0297 26.8839" stroke="#2F3152" stroke-linecap="round" stroke-linejoin="round"/>
<path d="M29.7584 33.0503C30.6261 33.0503 31.3295 32.1886 31.3295 31.1256C31.3295 30.0627 30.6261 29.201 29.7584 29.201C28.8907 29.201 28.1873 30.0627 28.1873 31.1256C28.1873 32.1886 28.8907 33.0503 29.7584 33.0503Z" fill="#2F3152"/>
<path d="M39.6541 31.7747C40.4502 31.7747 41.0956 30.984 41.0956 30.0086C41.0956 29.0332 40.4502 28.2425 39.6541 28.2425C38.858 28.2425 38.2126 29.0332 38.2126 30.0086C38.2126 30.984 38.858 31.7747 39.6541 31.7747Z" fill="#2F3152"/>
<path d="M35.6387 33.4352C36.6187 34.6881 37.9763 35.4617 39.475 35.4617C42.4723 35.4617 44.9014 32.3596 44.9014 28.5368C44.9014 27.6122 44.7603 26.7254 44.501 25.9216" stroke="#2F3152" stroke-linecap="round" stroke-linejoin="round"/>
<path d="M36.0582 39.3072C36.0582 39.3072 36.4548 39.8242 36.9505 39.8355C37.4463 39.8468 38.125 38.4581 38.6322 37.8014C39.1394 37.1448 39.1013 36.0391 37.5263 36.3674C35.9514 36.6957 35.5281 36.5523 34.8379 36.6957C34.0447 36.858 34.1286 37.7788 36.0544 39.3072H36.0582Z" stroke="#2F3152" stroke-linecap="round" stroke-linejoin="round"/>
<path d="M26.9707 42.1035C26.9707 42.1035 32.2256 46.4057 36.9847 41.2016L36.9504 39.8355" stroke="#2F3152" stroke-linecap="round" stroke-linejoin="round"/>
<path d="M20.8807 19.2684C20.8807 19.2684 16.3504 19.2684 12.3425 22.2233C8.83803 24.8083 6.8093 30.6464 7.38131 31.4955C7.95332 32.3446 10.6723 30.1293 13.4408 30.0086C16.2093 29.8878 17.258 30.4916 17.258 30.4916C17.258 30.4916 10.7714 38.1524 11.6752 46.2245C11.6752 46.2245 14.1577 43.7867 15.9195 42.5753C15.9195 42.5753 14.8212 43.8659 14.7755 46.934C14.7755 46.934 15.7784 45.8019 16.3504 45.4245" stroke="#2F3152" stroke-linecap="round" stroke-linejoin="round"/>
<path d="M7.38135 31.4955C7.38135 31.4955 7.85802 29.0614 11.4846 26.9518C15.1111 24.8385 18.7376 24.6045 18.7376 24.6045C18.7376 24.6045 16.3505 25.8272 15.9234 26.8801C15.9234 26.8801 17.1627 26.382 17.6394 26.3405C17.6394 26.3405 17.1131 27.099 16.972 27.9292C16.972 27.9292 17.5936 27.3405 18.3563 27.2499" stroke="#2F3152" stroke-linecap="round" stroke-linejoin="round"/>
<path d="M17.3533 43.7753C17.3533 43.7753 15.4466 46.934 16.4953 51.372C16.4953 51.372 17.7842 48.3492 19.7405 46.934C19.7405 46.934 19.2143 49.0096 20.1791 50.5946" stroke="#2F3152" stroke-linecap="round" stroke-linejoin="round"/>
<path d="M31.1389 49.0096C31.1389 49.0096 32.7596 50.2851 32.9045 52.8815C33.0494 55.4778 31.0436 57.3194 29.9949 56.61" stroke="#2F3152" stroke-linecap="round" stroke-linejoin="round"/>
<path d="M27.7524 51.4323C27.7524 51.4323 29.3731 52.3758 29.8498 54.4061C30.3265 56.4364 29.5295 58.0025 28.6638 58.6629C27.7982 59.3233 26.3186 59.9045 24.7437 55.9269" stroke="#2F3152" stroke-linecap="round" stroke-linejoin="round"/>
<path d="M32.8205 54.0551C32.8205 54.0551 34.4336 54.2513 35.0551 52.0814C35.6767 49.9115 34.2429 46.417 30.8566 45.7566C27.4703 45.0962 15.3589 49.587 10.9697 67.286" stroke="#2F3152" stroke-linecap="round" stroke-linejoin="round"/>
<path d="M15.0996 75.9921C15.0996 75.9921 12.4378 77.3507 11.1985 74.1807C11.1985 74.1807 10.6265 74.6335 10.5769 75.2298C10.5273 75.826 10.146 73.6523 10.5769 71.6221C10.5769 71.6221 9.81802 71.6711 9.53202 71.9994C9.53202 71.9994 8.43757 69.305 9.53202 66.1425L8.57486 67.0633C8.57486 67.0633 8.38419 64.2066 9.81421 61.9423" stroke="#2F3152" stroke-linecap="round" stroke-linejoin="round"/>
<path d="M15.4657 46.1981C15.4657 46.1981 12.8192 49.1492 12.1518 50.8021C12.1518 50.8021 12.9641 50.4662 13.4865 50.3493C13.4865 50.3493 11.9611 51.9946 11.5302 52.8852L12.5789 52.455C12.5789 52.455 10.676 54.4853 9.52819 57.4591L10.8133 56.7609C10.8133 56.7609 8.28502 60.8102 7.80835 62.7461L9.81038 61.9423" stroke="#2F3152" stroke-linecap="round" stroke-linejoin="round"/>
<path d="M44.9548 42.2092C44.9548 42.2092 44.6955 40.1374 42.6477 40.1374C40.5999 40.1374 39.9974 41.1714 39.7953 42.4092C39.5932 43.647 39.8373 48.3492 42.377 48.5077C44.9167 48.6661 45.4887 46.2245 44.9586 42.2092H44.9548Z" stroke="#2F3152" stroke-linecap="round" stroke-linejoin="round"/>
<path d="M45.0463 46.1604C45.4238 46.6472 45.9157 46.9717 46.5526 47.0132C49.0923 47.1717 49.6643 44.7301 49.1343 40.7148C49.1343 40.7148 48.8749 38.643 46.8271 38.643C44.97 38.643 44.3027 39.4959 44.0396 40.5752" stroke="#2F3152" stroke-linecap="round" stroke-linejoin="round"/>
<path d="M48.2268 39.0883C48.2268 39.0883 50.7436 38.0467 51.5635 40.1374C52.4406 42.3715 51.8381 45.0207 51.1402 45.832C50.4424 46.6434 48.8942 45.9943 48.8942 45.9943" stroke="#2F3152" stroke-linecap="round" stroke-linejoin="round"/>
<path d="M38.5254 14.9361C41.0918 15.7361 48.3296 19.3816 52.3718 30.0124C52.3718 30.0124 54.5798 31.2954 55.9679 34.3862C55.9679 34.3862 53.3481 33.9182 52.1125 33.9786C52.1125 33.9786 53.7904 35.2617 54.0421 36.8957C54.0421 36.8957 52.9972 36.4353 52.4672 36.3183C52.4672 36.3183 54.0993 38.4732 54.0497 40.3676C54.0497 40.3676 52.7608 39.877 52.1125 39.8468L51.4642 39.8129" stroke="#2F3152" stroke-linecap="round" stroke-linejoin="round"/>
<path d="M52.7378 39.9449C52.7378 39.9449 53.7064 41.0242 54.3204 42.5715" stroke="#2F3152" stroke-linecap="round" stroke-linejoin="round"/>
<path d="M36.9846 41.2016C36.9846 41.2016 38.1439 42.33 39.7951 42.4092" stroke="#2F3152" stroke-linecap="round" stroke-linejoin="round"/>
<path d="M29.2856 39.1487C29.2856 39.1487 17.4678 35.39 8.18604 39.9827" stroke="#2F3152" stroke-linecap="round" stroke-linejoin="round"/>
<path d="M29.0949 40.9676C29.0949 40.9676 16.8577 39.8581 8.5979 46.0811" stroke="#2F3152" stroke-linecap="round" stroke-linejoin="round"/>
<path d="M42.8384 38.2543C42.8384 38.2543 53.5845 32.1068 63.6405 34.6541" stroke="#2F3152" stroke-linecap="round" stroke-linejoin="round"/>
<path d="M48.2078 38.9789C50.8199 38.5977 54.2367 38.3562 57.7794 38.8128" stroke="#2F3152" stroke-linecap="round" stroke-linejoin="round"/>
<path d="M43.4143 39.994C43.4143 39.994 43.7613 39.8883 44.3791 39.7298" stroke="#2F3152" stroke-linecap="round" stroke-linejoin="round"/>
<path d="M23.5691 26.2876L35.8482 27.7745L45.6105 25.1366" stroke="#2F3152" stroke-linecap="round" stroke-linejoin="round"/>
<path d="M28.8585 31.386C29.3555 31.386 29.7584 30.8927 29.7584 30.2841C29.7584 29.6755 29.3555 29.1821 28.8585 29.1821C28.3614 29.1821 27.9585 29.6755 27.9585 30.2841C27.9585 30.8927 28.3614 31.386 28.8585 31.386Z" fill="white"/>
<path d="M38.8609 30.2878C39.32 30.2878 39.6922 29.83 39.6922 29.2651C39.6922 28.7003 39.32 28.2425 38.8609 28.2425C38.4017 28.2425 38.0295 28.7003 38.0295 29.2651C38.0295 29.83 38.4017 30.2878 38.8609 30.2878Z" fill="white"/>
<path d="M20.4346 20.1288C20.4346 20.1288 27.6114 11.5359 37.8885 10.283C37.8885 10.283 34.0865 10.7132 33.5794 13.8002C33.5794 13.8002 36.9085 12.1209 40.1003 12.0831C40.1003 12.0831 38.7885 13.6077 38.5215 14.9361C38.5215 14.9361 45.0539 12.4454 53.5272 16.4569C53.5272 16.4569 46.461 15.7701 44.0395 18.0646" stroke="#2F3152" stroke-linecap="round" stroke-linejoin="round"/>
<path d="M46.6785 20.5477C46.6785 20.5477 50.3164 17.0003 53.5311 16.4569" stroke="#2F3152" stroke-linecap="round" stroke-linejoin="round"/>
<path d="M13.0596 82.717C13.0596 82.717 18.2191 63.5952 25.2586 57.0741" stroke="#2F3152" stroke-linecap="round" stroke-linejoin="round"/>
<path d="M35.1924 49.8096C35.1924 49.8096 38.4567 47.9944 40.268 47.3302" stroke="#2F3152" stroke-linecap="round" stroke-linejoin="round"/>
<path d="M51.8379 44.1338C51.8379 44.1338 56.5207 41.1186 66.714 40.4431" stroke="#2F3152" stroke-linecap="round" stroke-linejoin="round"/>
</g>
<rect x="1" y="1" width="62" height="62" rx="31" stroke="#EAF1FE" stroke-width="2"/>
<defs>
<clipPath id="clip0_33_9963">
<rect width="64" height="64" rx="32" fill="white"/>
</clipPath>
</defs>
</svg>
