<svg width="64" height="64" viewBox="0 0 64 64" fill="none" xmlns="http://www.w3.org/2000/svg">
<g clip-path="url(#clip0_33_8910)">
<rect width="64" height="64" rx="32" fill="#6FE28F"/>
<path d="M113.62 63.9653C113.709 63.6683 113.736 63.3559 113.698 63.0481C113.659 62.7402 113.558 62.4437 113.398 62.1775C113.239 61.9113 113.026 61.6812 112.773 61.5019C112.52 61.3226 112.232 61.1982 111.928 61.1364C110.431 60.7922 108.935 61.8698 106.675 62.3189C106.016 62.4386 105.178 62.5434 104.519 62.6032H104.399C104.251 62.332 104.075 62.0762 103.876 61.8399C102.484 60.0737 98.3825 56.7359 95.9128 53.5478C92.9193 49.6562 90.4646 42.9657 86.8574 38.3107C85.4246 36.4968 83.4247 35.216 81.1778 34.6733C78.9309 34.1305 76.5669 34.3573 74.4641 35.3172C70.4229 37.2031 66.3965 41.7682 61.3225 42.801C58.4661 43.4421 55.512 43.5183 52.6263 43.0255L52.2671 42.786C52.1572 42.6092 52.0133 42.4559 51.8437 42.3352C51.6741 42.2144 51.4823 42.1285 51.2792 42.0826V41.7682C52.235 39.9198 52.7135 37.8617 52.6712 35.7812C52.6508 35.1933 52.5857 34.6079 52.4766 34.0299H52.5964C54.7816 32.9373 56.4131 31.4555 54.632 29.6744C54.0915 29.1264 53.4644 28.6713 52.776 28.3273L53.0304 28.447L48.4054 25.4535C48.6898 25.693 48.9892 25.9324 49.3035 26.1569L48.9742 26.0671L48.3156 25.663C48.6863 24.7512 48.9378 23.7953 49.064 22.8192C49.3184 20.9482 49.064 18.8078 48.4353 18.5085C47.8067 18.2091 46.9386 18.3738 45.4418 19.3467L43.2116 21.4571C42.7906 20.2141 42.2906 18.9993 41.7149 17.82C40.9665 16.3232 36.4612 13.5841 34.8297 12.5962C33.1983 11.6084 32.6145 12.1472 30.0401 12.3418C27.4656 12.5364 23.3795 16.5327 21.9426 18.0594C21.1707 19.2733 20.7224 20.6646 20.6404 22.1007L18.5748 20.2298C17.1679 19.3916 16.165 19.3317 15.716 19.6161C15.267 19.9005 14.9976 22.1157 15.3568 23.9717C15.5372 24.9032 15.8339 25.8083 16.2399 26.6659L12.1986 29.1804C12.1986 29.1804 12.6027 29.0158 13.1715 28.7164L12.7075 29.2104C10.7318 29.8689 9.17513 30.9466 9.01049 32.5182C8.84585 34.0898 10.642 35.0627 12.7973 36.0057H12.9021C12.9021 36.3649 12.9021 36.7241 12.9021 37.0834C12.9308 38.0956 13.0816 39.1007 13.3511 40.0769C13.5549 40.8247 13.841 41.5475 14.2043 42.2322L14.354 42.9657C13.4709 43.5494 12.5728 44.8366 13.9947 47.456C14.7951 48.8181 15.6956 50.1189 16.6889 51.3475L17.572 53.2185C17.0872 54.597 16.4602 55.9213 15.701 57.17C13.9498 60.0288 7.82804 65.971 12.7973 69.5931C16.6889 72.422 22.4215 71.0899 24.7715 70.4463L25.0259 70.6259C25.2679 71.0213 25.5924 71.3598 25.9774 71.6181C26.3623 71.8764 26.7985 72.0485 27.2561 72.1227H27.5105C27.6602 75.1162 33.3629 74.8767 36.2517 74.5025C39.1446 73.972 41.9775 73.1547 44.7084 72.0628H44.8731C50.0095 73.2481 55.2281 74.0436 60.4843 74.4427C67.2198 75.0114 73.1021 74.8169 80.4063 74.9516C86.3934 75.0563 92.575 72.8711 97.1402 72.5418C101.705 72.2125 105.417 72.8112 107.618 72.5418C115.655 71.5389 113.605 68.5903 113.605 68.5604C114.271 68.0919 114.791 67.4428 115.101 66.6894C115.88 64.6837 114.218 63.8905 113.62 63.9653ZM49.1388 26.0971H49.2885C49.5879 26.3366 49.9022 26.5461 50.2165 26.7557L49.1388 26.0971ZM81.1697 61.331C80.2844 61.1774 79.4362 60.8575 78.6701 60.388C77.8319 57.9483 78.6701 51.6918 78.6701 51.6918C80.5261 52.53 83.1603 56.5413 83.8189 57.9333C84.6257 59.3401 85.505 60.704 86.4532 62.0195C84.6754 61.944 82.9075 61.7136 81.1697 61.331Z" fill="#8CA0A4"/>
<path d="M13.8152 29.7642V31.246V32.7427H15.2671V34.2245H16.659V35.7213H18.3055V37.2031H27.4358V35.7213H28.9325V34.2245H30.5191V32.7427H35.1591V34.2245H36.5511V35.7213H38.1975V37.2031H47.3278V35.7213H48.8246V34.2245H50.4112V32.7427H51.863V31.246V29.7642H13.8152Z" fill="#2F3152"/>
<path d="M41.2209 32.7578H39.7241V34.2546H41.2209V32.7578Z" fill="white"/>
<path d="M42.7177 34.2544H41.2209V35.7512H42.7177V34.2544Z" fill="white"/>
<path d="M45.6965 34.2544H44.1997V35.7512H45.6965V34.2544Z" fill="white"/>
<path d="M44.1994 32.7578H42.7026V34.2546H44.1994V32.7578Z" fill="white"/>
<path d="M21.3288 32.7578H19.832V34.2546H21.3288V32.7578Z" fill="white"/>
<path d="M22.8259 34.2544H21.3291V35.7512H22.8259V34.2544Z" fill="white"/>
<path d="M25.8044 34.2544H24.3076V35.7512H25.8044V34.2544Z" fill="white"/>
<path d="M24.3073 32.7578H22.8105V34.2546H24.3073V32.7578Z" fill="white"/>
<path d="M12.7974 35.9309C12.7974 35.9309 8.98067 34.4342 9.14531 31.8597C9.30996 29.2853 12.1388 29.3152 12.1388 29.3152L17.9014 25.8577L21.5535 22.7744L20.6854 22.026L21.9876 17.9847C21.9876 17.9847 27.6753 12.761 30.0851 12.2671C31.5106 11.9594 32.9853 11.9594 34.4107 12.2671L41.7599 17.7452L43.2566 21.3824C43.3395 21.8471 43.5146 22.2905 43.7717 22.6864C44.0287 23.0823 44.3626 23.4227 44.7534 23.6874C45.9808 24.4657 52.2372 27.8783 52.2372 27.8783C52.2372 27.8783 55.111 29.5547 55.4253 30.8719C55.7397 32.189 52.6264 34.06 52.6264 34.06C52.6264 34.06 51.2194 30.7372 50.486 29.1057C49.7526 27.4742 49.1988 27.3545 49.1988 27.3545C46.8904 27.5287 44.6016 27.9043 42.3586 28.477C39.3001 29.4892 36.1052 30.0293 32.884 30.0786C28.6248 29.7452 24.3875 29.1755 20.1915 28.3723H15.5664C15.5664 28.3723 12.6028 33.7008 12.7974 35.9309Z" fill="#FFF354"/>
<path d="M21.5683 22.7744L15.3418 27.3994L23.6788 25.3339C27.0274 24.6485 30.4389 24.3174 33.8568 24.346C37.5674 24.3315 41.2742 24.5866 44.9478 25.1094L48.9592 25.9925L44.7233 23.6874L43.2266 21.3824C39.4941 20.7607 35.7234 20.3956 31.941 20.2898C24.517 19.9455 21.5683 22.7744 21.5683 22.7744Z" fill="#2F3152"/>
<path d="M16.1951 26.7557C16.1951 26.7557 14.2043 20.9781 15.7011 19.7059C17.1979 18.4336 20.1914 23.9866 20.1914 23.9866L16.1951 26.7557Z" fill="#FFC2E8"/>
<path d="M44.1396 22.7893C44.1396 22.7893 46.5195 18.1493 48.4054 18.4337C50.2914 18.7181 48.2857 25.5883 48.2857 25.5883L44.7084 23.6874L44.1396 22.7893Z" fill="#FFC2E8"/>
<path d="M32.8391 40.077C33.5914 40.077 34.2012 39.7017 34.2012 39.2388C34.2012 38.7759 33.5914 38.4006 32.8391 38.4006C32.0869 38.4006 31.4771 38.7759 31.4771 39.2388C31.4771 39.7017 32.0869 40.077 32.8391 40.077Z" fill="#FFC2E8"/>
<path d="M28.1243 43.4745C28.4457 44.4658 29.0778 45.3271 29.927 45.931C30.7762 46.5349 31.7973 46.8491 32.8391 46.8273C33.9084 46.8692 34.96 46.5449 35.8201 45.9081C36.6801 45.2712 37.297 44.3599 37.5689 43.3249C37.5689 43.3249 35.5482 44.5223 34.2011 43.3249C32.854 42.1274 32.8391 41.7084 32.8391 41.7084C32.8391 41.7084 32.5846 42.9357 30.6089 43.7589C28.6332 44.5821 28.1243 43.4745 28.1243 43.4745Z" fill="#2F3152"/>
<path d="M29.5762 45.7946C30.3163 45.2132 31.2122 44.8642 32.1506 44.7918C32.8764 44.7918 33.4804 44.9717 33.4804 44.9717C33.9951 44.5211 34.5536 44.5458 35.2375 44.5324C35.835 44.5147 36.2109 44.7112 36.7157 45.0313C35.8667 46.0164 34.6719 46.6379 33.378 46.7675C32.7115 46.882 32.0283 46.8546 31.3732 46.6869C30.7181 46.5193 30.1057 46.2152 29.5762 45.7946Z" fill="#EF80A5"/>
<path d="M68.6266 39.0142C68.5905 37.078 68.0763 35.1807 67.1299 33.4911C65.6331 30.9915 60.11 22.909 60.11 22.909C59.1061 20.8281 58.5551 18.5579 58.4935 16.2484C58.2989 12.1472 61.6517 7.70183 61.6517 7.70183C61.6517 7.70183 65.663 3.10675 69.4499 2.43321C73.2367 1.75966 74.5688 2.82237 74.5838 4.69333C74.6077 5.21167 74.5213 5.7292 74.3304 6.21169C74.1394 6.69419 73.8483 7.13067 73.4762 7.49228L70.7371 8.45021C69.4091 8.98897 68.2088 9.80012 67.2137 10.8314C66.2186 11.8626 65.4507 13.091 64.9596 14.4373C63.4628 18.8078 67.9531 24.0465 67.9531 24.0465C69.5809 26.1651 71.0804 28.3793 72.4434 30.6772C73.3265 32.5182 74.3742 35.3771 74.3742 35.3771L68.6266 39.0142Z" fill="#8CA0A4"/>
<g opacity="0.25">
<path opacity="0.25" d="M33.1533 12.0875C33.1533 12.0875 37.6436 14.153 37.8083 20.634L38.5716 24.4508C38.5716 24.4508 42.6877 27.4443 44.888 27.4443C47.2032 27.0024 49.5887 27.0945 51.8629 27.7137L48.3006 25.738L44.888 23.5228L43.1368 21.5022L41.3855 17.2364L36.4312 13.4795C36.4312 13.4795 35.9373 12.5066 33.1533 12.0875Z" fill="#2F3152"/>
</g>
<g opacity="0.5">
<path opacity="0.5" d="M49.2288 27.2347L51.8631 31.2461L52.5815 33.9852C52.5815 33.9852 55.5751 32.7728 55.3805 30.7971C55.1859 28.8213 49.2288 27.2347 49.2288 27.2347Z" fill="#2F3152"/>
</g>
<g opacity="0.5">
<path opacity="0.5" d="M15.6112 28.4021C15.6112 28.4021 12.6177 32.7427 12.902 35.8859C12.902 35.8859 8.8009 35.5117 9.01045 32.3985C9.22 29.2852 15.6112 28.4021 15.6112 28.4021Z" fill="#2F3152"/>
</g>
<g opacity="0.25">
<path opacity="0.25" d="M44.1396 22.7891C44.1396 22.7891 46.3998 18.5383 48.3456 18.8077C50.2914 19.0772 48.3456 25.7976 48.3456 25.7976L45.8759 24.3009L44.1396 22.7891Z" fill="#1F2937"/>
</g>
<g opacity="0.25">
<path opacity="0.25" d="M13.2612 44.5523C13.2612 44.5523 14.4287 43.295 15.3417 45.6898C16.2548 48.0847 21.5084 48.4589 21.5683 53.8622C21.3513 58.6823 19.7964 63.3468 17.078 67.3331C15.4465 69.5782 17.4372 71.6438 20.2511 70.9104C23.0651 70.1769 21.3438 71.7935 21.3438 71.7935L24.6816 70.4314L25.2204 68.4257C25.2204 68.4257 24.8911 66.4949 26.1035 65.9112C27.6261 65.3656 29.1938 64.9549 30.7884 64.6838C29.9235 63.9546 29.1764 63.0963 28.5732 62.1393C27.256 60.2384 26.3579 58.6668 26.3579 58.6668L26.8818 54.431L26.6274 52.3804L22.8106 50.7339C21.9324 49.1572 20.567 47.9074 18.919 47.1716C17.0365 46.1603 15.4561 44.6676 14.3389 42.846C14.3389 42.846 13.2612 43.759 13.2612 44.5523Z" fill="#1F2937"/>
</g>
<g opacity="0.25">
<path opacity="0.25" d="M54.0633 47.1715C53.1652 42.6064 51.3391 42.0526 51.3391 42.0526L47.1332 46.977C44.5438 49.4616 41.8197 50.6291 37.1647 52.0809C34.4911 52.8416 31.6942 53.0705 28.9325 52.7545C28.9325 52.5599 28.9325 52.4252 28.9325 52.4252H26.6874L26.418 58.7116L30.8334 64.6987L35.5183 63.7857L40.3529 62.1392L43.077 60.3431L42.4633 54.356C42.9123 58.3823 38.6316 61.3459 34.2012 61.5854C29.7707 61.8249 28.5134 58.2476 28.8727 56.9903C29.055 55.9579 29.0953 54.9054 28.9924 53.8621C31.223 54.2816 33.5122 54.2816 35.7428 53.8621C41.9694 52.4551 45.6963 50.1651 47.9415 47.9648C49.9471 50.7638 52.4318 61.0466 50.2166 63.9054C46.5507 68.1205 41.5932 71.0045 36.117 72.1077C29.187 73.4248 27.6154 70.9552 27.6154 70.9552C26.5227 72.1676 27.4058 74.3977 33.1534 74.5773C37.3746 74.4373 41.5281 73.4764 45.382 71.7485C45.382 71.7485 52.0726 69.7278 54.198 65.2974C56.3234 60.867 54.9464 51.7816 54.0633 47.1715Z" fill="#1F2937"/>
</g>
<g opacity="0.25">
<path opacity="0.25" d="M31.5069 29.7641C27.8729 29.6439 24.2567 29.2032 20.7002 28.4469H15.6112L14.803 29.809L31.5069 29.7641Z" fill="#1F2937"/>
</g>
<g opacity="0.25">
<path opacity="0.25" d="M49.2286 27.2347C49.2286 27.2347 48.8244 27.2347 48.0761 27.2347L44.8879 27.4293L45.0226 27.6838C44.3192 27.8335 43.5259 27.9981 42.7026 28.2076C39.0782 29.318 35.2956 29.8237 31.5068 29.7044H50.9648C50.5482 28.7784 49.9589 27.9402 49.2286 27.2347Z" fill="#1F2937"/>
</g>
<g opacity="0.25">
<path opacity="0.25" d="M51.9977 32.2039L51.863 31.8297V32.7726H50.3662V34.2694H48.7797V35.7662H47.4326C48.4953 42.5316 47.0135 51.2727 32.9888 52.8892C37.3442 52.687 41.5509 51.2432 45.1126 48.7282C48.2309 46.4089 50.6579 43.2834 52.1324 39.6877C52.777 37.2282 52.7304 34.6386 51.9977 32.2039Z" fill="#1F2937"/>
</g>
<g opacity="0.25">
<path opacity="0.25" d="M71.755 2.04405C71.755 2.04405 74.5091 4.13953 71.755 5.54649C69.001 6.95345 63.6126 8.36041 62.7744 14.2128C61.9362 20.0651 65.4386 23.5975 66.8456 25.7978C68.2526 27.998 70.5127 32.9523 67.6838 33.9851L68.6118 39.0142L74.4043 35.3172L72.4734 30.6173L68.8513 25.1841L65.3039 19.5562C64.7448 18.4516 64.4838 17.2201 64.5468 15.9836C64.6098 14.7471 64.9946 13.5485 65.6632 12.5065C68.043 9.2435 69.884 8.74957 69.884 8.74957L72.9674 7.64196C73.6023 7.2707 74.0946 6.6976 74.3658 6.014C74.6371 5.3304 74.6717 4.57567 74.4641 3.87011C73.5362 1.55012 71.755 2.04405 71.755 2.04405Z" fill="#1F2937"/>
</g>
<g opacity="0.25">
<path opacity="0.25" d="M115.505 65.4921L114.113 63.9953L113.245 62.6183C113.245 64.8185 105.253 65.0879 105.253 65.0879L104.729 66.0159C104.885 64.8753 104.783 63.7141 104.429 62.6183C104.429 62.6183 99.3853 57.2748 97.2299 55.0446C95.1457 52.3865 93.3213 49.5346 91.7817 46.528L89.8509 43.1453C88.8596 41.3582 87.2134 40.0255 85.259 39.428C83.3046 38.8305 81.1946 39.0149 79.3735 39.9423L79.2238 40.0321C74.4342 42.6065 71.0365 52.575 55.6348 51.0782L54.7517 50.8238L54.3625 49.4318C54.6469 51.183 54.8714 53.1587 55.0211 55.1344C55.0959 58.2327 55.0211 61.6603 55.0211 61.6603C54.6319 67.0337 51.354 68.5604 51.354 68.5604H51.4438L44.8281 72.0778C53.5003 73.6235 62.2758 74.5191 71.0814 74.7571C83.5794 74.8618 85.1361 74.6373 85.1361 74.6373C85.1361 74.6373 93.9221 72.8113 97.6191 72.5568C101.316 72.3024 105.702 72.7364 108.635 72.3173C111.569 71.8982 113.44 70.9253 113.634 70.177C113.759 69.6876 113.824 69.1851 113.829 68.6802C113.829 68.6802 115.326 66.9589 115.161 65.8064L115.505 65.4921ZM83.5644 61.7052L81.469 61.4059L78.9694 60.0139L78.3707 56.751L78.5503 53.5329L78.7299 51.9463L79.8375 52.7995L81.4241 54.2963L84.0584 58.3525L86.4532 62.0046L83.5644 61.7052ZM102.618 66.6296C102.611 66.8587 102.647 67.087 102.723 67.3032H102.618C102.618 67.3032 102.394 67.4977 102.02 67.7672C102.343 67.4675 102.555 67.066 102.618 66.6296ZM95.4937 69.0544C93.054 68.77 91.3177 64.6539 91.3177 64.6539H91.198C91.198 64.6539 91.0932 64.5341 91.0483 64.4593L91.3177 64.6838C91.3177 64.6838 93.0839 68.2312 95.4338 69.0544H95.4937ZM97.1401 69.0544C97.3808 68.9596 97.5997 68.817 97.7837 68.6353L98.0532 68.5455C98.0532 68.5455 98.0232 68.9795 97.1401 69.1143V69.0544ZM100.358 68.7101C100.099 68.8426 99.8161 68.9227 99.5259 68.9458C99.2357 68.9689 98.9438 68.9346 98.6668 68.8448C99.36 68.943 100.067 68.8391 100.702 68.5455L100.358 68.7101Z" fill="#1F2937"/>
</g>
<path d="M102.663 66.914C103.067 67.5875 104.235 67.5426 104.669 66.3302C104.955 65.577 105.028 64.7595 104.88 63.9673C104.733 63.1752 104.369 62.4391 103.831 61.8399C102.439 60.0737 98.3375 56.736 95.8678 53.5478C92.8743 49.6562 90.4196 42.9657 86.8124 38.3107C85.3796 36.4968 83.3797 35.216 81.1328 34.6733C78.8859 34.1306 76.5219 34.3573 74.4191 35.3172C70.3779 37.2031 66.3516 41.7683 61.2775 42.801C58.4211 43.4421 55.467 43.5184 52.5813 43.0256" stroke="#2F3152" stroke-linecap="round" stroke-linejoin="round"/>
<path d="M30.6686 41.7084C27.8305 41.8608 25.0676 42.6759 22.6011 44.0882" stroke="#2F3152" stroke-linecap="round" stroke-linejoin="round"/>
<path d="M30.564 40.5259C27.912 39.4597 24.9837 39.2915 22.2271 40.0469" stroke="#2F3152" stroke-linecap="round" stroke-linejoin="round"/>
<path d="M35.2639 41.5737C38.1007 41.5431 40.905 42.1788 43.4512 43.4297" stroke="#2F3152" stroke-linecap="round" stroke-linejoin="round"/>
<path d="M35.2339 40.3912C37.813 39.1569 40.7249 38.7994 43.526 39.3734" stroke="#2F3152" stroke-linecap="round" stroke-linejoin="round"/>
<path d="M32.8989 40.2566L32.9438 41.7683" stroke="#2F3152" stroke-linecap="round" stroke-linejoin="round"/>
<path d="M42.9722 21.7265C43.681 20.7632 44.5342 19.9151 45.5017 19.2119C46.9087 18.239 47.9414 18.1043 48.4952 18.3737C49.049 18.6432 49.3783 20.8135 49.1239 22.6844C48.9977 23.6606 48.7462 24.6165 48.3755 25.5283" stroke="#2F3152" stroke-linecap="round" stroke-linejoin="round"/>
<path d="M47.9714 25.3339C48.343 24.4148 48.5799 23.4469 48.6749 22.4601C48.9742 19.9455 48.4952 18.8978 48.2857 18.808C48.0762 18.7181 46.9386 18.5535 45.6514 20.155C44.9787 20.9586 44.4656 21.8832 44.1396 22.8792" stroke="#2F3152" stroke-linecap="round" stroke-linejoin="round"/>
<path d="M21.3289 22.7293C20.5737 21.8183 19.6856 21.0261 18.6946 20.3794C17.1978 19.4813 16.195 19.4215 15.7011 19.7058C15.2071 19.9902 14.9826 22.2054 15.3419 24.0614C15.5292 25.0257 15.8411 25.9616 16.2698 26.8454" stroke="#2F3152" stroke-linecap="round" stroke-linejoin="round"/>
<path d="M16.5541 26.576C16.132 25.683 15.8349 24.7362 15.6711 23.7621C15.2071 21.2625 15.6711 20.1848 15.8357 20.0801C16.0003 19.9753 17.1678 19.7508 18.5449 21.2625C19.2992 22.0582 19.8623 23.0155 20.1913 24.0615" stroke="#2F3152" stroke-linecap="round" stroke-linejoin="round"/>
<path d="M28.3037 43.7141C28.416 44.2652 28.6541 44.7829 28.9995 45.2268C29.3448 45.6708 29.7879 46.029 30.2944 46.2735C31.3672 46.7886 32.5794 46.9372 33.7448 46.6966C34.9103 46.4559 35.9645 45.8393 36.7455 44.9414C37.167 44.4283 37.4962 43.8459 37.7184 43.2201" stroke="#2F3152" stroke-linecap="round" stroke-linejoin="round"/>
<path d="M27.271 42.3819C27.5853 43.8787 30.998 45.1958 32.9138 41.858" stroke="#2F3152" stroke-linecap="round" stroke-linejoin="round"/>
<path d="M38.5716 42.0227C38.3471 43.5195 35.0243 45.0162 32.9138 41.858" stroke="#2F3152" stroke-linecap="round" stroke-linejoin="round"/>
<path d="M34.5752 68.9346C34.5752 68.9346 27.9445 68.2162 27.4206 71.6737C26.8968 75.1312 33.0934 74.9516 36.1468 74.5475C39.2002 74.1434 50.5158 70.8654 53.5991 66.435C57.4308 60.9269 54.3325 42.367 51.2342 42.0676" stroke="#2F3152" stroke-linecap="round" stroke-linejoin="round"/>
<path d="M25.2053 68.4408C25.1323 68.0643 25.1401 67.6767 25.2281 67.3035C25.316 66.9303 25.4823 66.58 25.7157 66.2758C25.9492 65.9716 26.2445 65.7205 26.5823 65.5389C26.92 65.3574 27.2924 65.2496 27.6749 65.2227C27.6749 65.2227 30.5936 64.8785 35.4282 63.726C37.9559 63.0786 40.3414 61.9671 42.463 60.448C42.463 60.448 43.1066 59.999 44.8578 60.927" stroke="#2F3152" stroke-linecap="round" stroke-linejoin="round"/>
<path d="M42.4631 54.3111C43.0384 56.282 43.2464 58.3419 43.0768 60.388" stroke="#2F3152" stroke-linecap="round" stroke-linejoin="round"/>
<path d="M15.7757 28.417C13.8729 30.8739 12.8551 33.9011 12.887 37.0085C12.9157 38.0207 13.0664 39.0258 13.336 40.002C13.8191 41.6122 14.6151 43.1114 15.6784 44.4136C16.7417 45.7157 18.0514 46.7953 19.5326 47.5906C20.5108 48.1052 21.34 48.8629 21.9404 49.791C22.5407 50.719 22.8919 51.786 22.9602 52.8892" stroke="#2F3152" stroke-linecap="round" stroke-linejoin="round"/>
<path d="M22.4666 50.6142C25.6406 52.214 29.1673 52.9863 32.7194 52.8593C43.6907 52.5151 52.9258 44.1032 52.6564 35.7513C52.4931 32.6097 51.2568 29.6193 49.1539 27.2796" stroke="#2F3152" stroke-linecap="round" stroke-linejoin="round"/>
<path d="M26.6273 52.4253C26.6273 52.4253 28.2737 57.9184 23.1099 65.3574" stroke="#2F3152" stroke-linecap="round" stroke-linejoin="round"/>
<path d="M14.3392 42.8908C13.4561 43.4746 12.558 44.7618 13.98 47.3811C15.7012 50.5692 17.4974 51.3027 17.9763 54.4608" stroke="#2F3152" stroke-linecap="round" stroke-linejoin="round"/>
<path d="M24.6815 70.4463C22.3764 71.1349 16.6438 72.4221 12.7073 69.5932C7.73806 65.971 13.8598 60.0288 15.6111 57.17C16.4144 55.8618 17.0767 54.472 17.5868 53.024" stroke="#2F3152" stroke-linecap="round" stroke-linejoin="round"/>
<path d="M26.3582 58.7116C27.52 60.9183 29.0087 62.9368 30.7736 64.6987" stroke="#2F3152" stroke-linecap="round" stroke-linejoin="round"/>
<path d="M12.7972 35.9309C10.6419 34.9879 8.87569 33.8055 9.0104 32.4434C9.35466 29.1356 15.8207 27.9531 19.4878 28.2974C23.1549 28.6416 29.9651 30.0785 32.9587 30.0785C36.6389 29.8498 40.2726 29.1351 43.7653 27.9531C46.5194 27.0102 51.5036 26.4564 54.6169 29.6295C56.3981 31.4107 54.7666 32.8925 52.5813 33.9851" stroke="#2F3152" stroke-linecap="round" stroke-linejoin="round"/>
<path d="M48.3901 25.3786C49.8273 26.5292 51.3768 27.5321 53.0151 28.3721" stroke="#2F3152" stroke-linecap="round" stroke-linejoin="round"/>
<path d="M20.7002 22.0259C20.8475 20.6027 21.2911 19.2261 22.0024 17.9847C23.1699 16.7423 28.5582 12.3119 30.6238 12.1622C32.2179 11.8247 33.8794 12.0357 35.3386 12.7609C36.6557 13.5542 41.176 16.5478 41.7747 17.7452C42.0142 18.2391 42.8823 20.1999 43.2715 21.3823" stroke="#2F3152" stroke-linecap="round" stroke-linejoin="round"/>
<path d="M12.1536 29.3151C13.6174 28.6809 14.9792 27.8336 16.1948 26.8006" stroke="#2F3152" stroke-linecap="round" stroke-linejoin="round"/>
<path d="M15.3418 27.5042C15.3418 27.5042 17.4522 27.0701 20.0716 26.2319C24.4547 24.991 28.9871 24.3565 33.5425 24.346C38.8321 24.1766 44.1188 24.7612 49.2436 26.0822" stroke="#2F3152" stroke-linecap="round" stroke-linejoin="round"/>
<path d="M42.9722 21.7265C39.69 20.7164 36.2732 20.2117 32.8391 20.2298C28.9185 20.0044 25.0122 20.8696 21.5535 22.7294" stroke="#2F3152" stroke-linecap="round" stroke-linejoin="round"/>
<path d="M34.2013 39.089C34.2013 38.61 33.5726 38.3705 32.8392 38.3855C32.1058 38.4005 31.4921 38.6998 31.522 39.1788C31.552 39.6578 32.4949 40.2565 32.8991 40.2565C33.3032 40.2565 34.2162 39.568 34.2013 39.089Z" stroke="#2F3152" stroke-linecap="round" stroke-linejoin="round"/>
<path d="M21.5534 22.7892C20.145 24.3601 18.4478 25.6457 16.5542 26.576" stroke="#2F3152" stroke-linecap="round" stroke-linejoin="round"/>
<path d="M42.9722 21.7266C44.4497 23.3674 46.2684 24.6651 48.3007 25.5284" stroke="#2F3152" stroke-linecap="round" stroke-linejoin="round"/>
<path d="M68.6266 39.0142C68.6266 35.4369 66.5461 32.2937 64.0166 28.9409C60.8135 24.75 56.4579 18.9874 59.4215 11.5335C60.3603 9.09042 61.9173 6.93289 63.9402 5.2721C65.963 3.61131 68.3824 2.50416 70.9616 2.05899C71.7114 1.99339 72.4594 2.20435 73.0644 2.65209C73.6695 3.09983 74.0898 3.75344 74.2463 4.48971C74.4027 5.22597 74.2845 5.99403 73.9138 6.64913C73.5431 7.30422 72.9455 7.80108 72.2338 8.04606H71.7399C70.2354 8.36664 68.8368 9.06335 67.6746 10.0711C66.5124 11.0788 65.6247 12.3647 65.0942 13.8086C63.5975 17.7601 65.4684 20.7686 68.8811 25.2439C71.3768 28.1903 73.2277 31.6268 74.3143 35.3321" stroke="#2F3152" stroke-linecap="round" stroke-linejoin="round"/>
</g>
<rect x="1" y="1" width="62" height="62" rx="31" stroke="#EAF1FE" stroke-width="2"/>
<defs>
<clipPath id="clip0_33_8910">
<rect width="64" height="64" rx="32" fill="white"/>
</clipPath>
</defs>
</svg>
